<svg width="123" height="83" viewBox="0 0 123 83" fill="none" xmlns="http://www.w3.org/2000/svg">
<g clip-path="url(#clip0_1_57111)">
<path d="M116.67 0.633208C118.783 0.458186 120.877 0.0839534 123.001 0C122.194 4.5221 121.167 9.00293 120.299 13.5179C120.082 14.4869 119.915 15.4688 119.632 16.4236C118.056 14.6563 116.366 13.0028 114.84 11.1943C113.487 12.2273 112.282 13.434 110.949 14.4941C100.591 23.201 90.0997 31.7586 79.623 40.3332C72.518 46.0762 65.4691 51.8875 58.2892 57.5394C57.3209 58.3092 56.2719 58.9737 55.3354 59.7848C47.7203 56.512 40.108 53.2307 32.5333 49.8712C32.3848 49.7882 32.2155 49.7489 32.0452 49.758C31.8749 49.7671 31.7107 49.8241 31.5722 49.9224C30.0838 50.8558 28.6559 51.8846 27.2135 52.8849C23.4874 55.3082 19.8852 57.9136 16.1389 60.3198C13.5453 62.1312 10.8407 63.7946 8.25432 65.6231C6.68231 66.7614 4.95324 67.6565 3.34665 68.7422C2.73283 69.1292 2.12189 69.6415 1.33949 69.5959C0.260267 69.8108 -0.343465 68.3992 0.196868 67.6223C0.449538 67.3057 0.73175 67.0132 1.03979 66.7486C2.76885 65.3257 4.59878 64.018 6.26157 62.514C13.5453 56.5092 20.79 50.4716 28.1112 44.5237C29.019 43.7739 29.9325 43.0325 30.8071 42.247C34.8229 43.3399 38.5706 45.184 42.438 46.6823C46.3168 48.3728 50.2562 49.9295 54.1091 51.6783C56.8612 49.3247 59.7286 47.0978 62.4879 44.7528C70.7922 38.0119 79.0927 31.2662 87.3894 24.5158C87.8677 24.1202 88.4225 23.83 88.9066 23.4443C90.8777 21.5319 93.1255 19.9339 95.2307 18.1795C100.199 14.1739 105.164 10.1712 110.207 6.26093C108.968 4.64163 107.362 3.35244 106.091 1.75875C109.617 1.38879 113.134 0.923487 116.67 0.633208Z" fill="white"/>
<path d="M102.386 23.9837C106.581 20.5388 110.688 16.9843 114.849 13.4995C116.172 14.9723 117.453 16.4877 118.828 17.9106C119.548 18.5723 119.276 19.6509 119.369 20.5132C119.335 40.6748 119.369 60.8364 119.349 80.998C119.306 81.7522 119.094 82.8478 118.146 82.909C113.846 83.1011 109.537 82.919 105.234 82.9972C104.416 82.9275 103.348 83.1751 102.727 82.4793C102.195 81.6156 102.439 80.5227 102.344 79.5694C102.388 61.0441 102.303 42.5104 102.386 23.9837Z" fill="white"/>
<path d="M90.8782 33.3751C93.8248 30.9831 96.7008 28.5058 99.6762 26.1494C99.9947 27.9992 99.914 29.8861 99.9097 31.7544C99.8852 48.1182 99.9269 64.482 99.8909 80.8457C99.95 81.6483 99.7079 82.845 98.6921 82.9019C94.3939 83.0954 90.0842 82.9147 85.7817 82.9887C84.7328 82.9688 83.1262 83.2021 82.8077 81.8134C82.6968 80.4004 82.7501 78.9831 82.7501 77.5701C82.7789 65.0127 82.7285 52.4553 82.7746 39.8978C85.557 37.8275 88.1823 35.5479 90.8782 33.3751Z" fill="white"/>
<path d="M63.6126 55.5516C69.3545 51.0836 74.9567 46.4448 80.5819 41.8345C80.605 55.1731 80.605 68.5112 80.5819 81.8489C80.5819 82.7738 79.4552 83.0129 78.7088 82.9574C74.1527 82.9873 69.5937 83.0314 65.0391 82.9389C64.6665 82.9555 64.3025 82.8252 64.0271 82.5768C63.7518 82.3284 63.5876 81.9821 63.5708 81.6141C63.5655 81.4996 63.5747 81.3849 63.5982 81.2726C63.5694 72.6999 63.5742 64.1262 63.6126 55.5516Z" fill="white"/>
<path d="M31.916 51.9243C35.3741 53.3786 38.7818 54.9666 42.2558 56.398C42.2961 64.2157 42.2414 72.0333 42.2846 79.8509C42.2356 80.6876 42.4114 81.621 41.9431 82.3809C41.3884 83.1407 40.3322 82.8846 39.5354 82.9814H27.2792C26.5501 83.0297 25.5588 82.9188 25.2504 82.139C25.066 81.3934 25.1481 80.6051 25.1063 79.8481C25.1265 72.4943 25.1366 65.1406 25.0991 57.7925C25.1568 57.3201 24.955 56.6001 25.4867 56.307C27.6351 54.8527 29.8094 53.4355 31.916 51.9243Z" fill="white"/>
<path d="M55.9238 61.6134C57.905 60.2076 59.7508 58.6253 61.6874 57.1582C61.7753 64.7723 61.6874 72.3836 61.7349 80.0006C61.6096 80.8658 61.9496 82.0553 61.1182 82.6701C60.2537 83.1411 59.2047 82.9063 58.2681 82.9973C54.1429 82.9447 50.0133 83.0571 45.8895 82.9504C45.0537 82.9177 44.4313 82.0966 44.5927 81.2784C44.5408 73.347 44.5768 65.4141 44.5811 57.4812C47.5018 58.6566 50.3605 59.9813 53.2683 61.1894C54.078 61.528 55.0722 62.2054 55.9238 61.6134Z" fill="white"/>
<path d="M21.507 59.103C22.1482 58.6349 22.8182 59.3165 22.9796 59.8985C23.1467 60.8447 23.1035 61.8138 23.1237 62.7742C23.079 68.9427 23.1309 75.1111 23.1078 81.2796C23.0983 81.7377 22.9055 82.1736 22.5715 82.4917C22.2375 82.8098 21.7894 82.9844 21.3254 82.9771C21.2487 82.9755 21.1722 82.9688 21.0963 82.9572C16.4855 82.9956 11.8833 83.0198 7.27966 82.9444C6.35893 82.9586 5.69468 82.0024 5.83012 81.1387C5.78402 77.8147 5.84597 74.4907 5.80563 71.1667C5.93675 70.5648 5.53618 69.6627 6.19755 69.2756C10.1254 66.656 14.0749 64.0648 17.9638 61.3883C19.1511 60.6469 20.2693 59.7747 21.507 59.103Z" fill="white"/>
</g>
<defs>
<clipPath id="clip0_1_57111">
<rect width="123" height="83" fill="white"/>
</clipPath>
</defs>
</svg>
