<svg width="164" height="92" viewBox="0 0 164 92" fill="none" xmlns="http://www.w3.org/2000/svg">
<path d="M99.7469 1.69451C102.266 1.07923 104.851 0.187451 107.546 0.479517C118.82 3.34176 129.813 6.89329 141.11 9.66207C141.129 11.9519 141.147 14.2417 141.163 16.5315C131.253 14.1949 121.201 12.1972 111.291 9.88404C108.73 9.42063 106.063 8.61063 103.416 9.26486C90.0417 12.0998 76.7243 15.1062 63.3072 17.8321C52.1001 20.4997 40.7599 22.7934 29.4673 25.1688C29.5053 22.7817 29.5576 20.3945 29.7097 18.0113C49.5669 13.6342 69.2529 8.74304 89.0436 4.16344C92.6623 3.49655 96.2351 2.67241 99.7469 1.69451Z" fill="white"/>
<path d="M109.823 12.46C123.463 15.2716 137.018 18.3714 150.63 21.2764C150.735 40.6813 150.63 60.0861 150.678 79.4948C155.06 79.5259 159.452 79.5337 163.838 79.6272C163.948 83.4864 163.967 87.3494 164 91.2086H0C0.0190112 87.3144 0.0190112 83.4202 0 79.5259C5.54651 79.5259 11.093 79.5065 16.6348 79.5259C16.6823 63.9491 16.5968 48.3723 16.6348 32.7955C16.7346 32.1374 16.573 31.082 17.6376 30.9457C46.4396 24.9019 75.2795 18.9438 104.058 12.8299C104.153 35.0697 104.058 57.3095 104.101 79.5493H109.804C109.832 57.1927 109.766 34.8361 109.832 12.4794L109.823 12.46ZM69.8661 23.4299C69.8661 31.9388 69.8043 40.4437 69.9184 48.9526C79.8993 47.8739 89.8801 47.1145 99.804 45.7165C99.804 36.2107 99.8372 26.7089 99.804 17.207C89.8231 19.2164 79.8422 21.3621 69.8614 23.4377L69.8661 23.4299ZM42.7752 28.9948C42.7308 36.5235 42.7308 44.0523 42.7752 51.5811C50.5365 51.1917 58.2218 50.187 65.9403 49.4393C66.1257 41.0707 66.1779 32.6942 65.8595 24.3256C58.1647 25.8833 50.5222 27.6084 42.7847 28.9986L42.7752 28.9948ZM20.437 33.9131V53.8982C26.5681 53.7074 32.6279 52.8701 38.683 52.1341C38.3408 44.7351 38.3456 37.3361 38.8256 29.9644C32.647 31.2261 26.4683 32.3944 20.418 33.9131H20.437ZM69.8661 52.3911C69.8217 60.9116 69.8217 69.4374 69.8661 77.9683H99.8087V49.1512C89.8611 50.3584 79.8755 51.3358 69.9041 52.3911H69.8661ZM42.8132 55.1171C42.7942 62.7341 42.7942 70.3512 42.8132 77.9683H48.4785C48.4785 72.6838 48.4785 67.3994 48.6544 62.1189C52.5564 61.9358 56.4585 61.7684 60.3605 61.5815C60.3605 67.0022 60.3605 72.4229 60.5316 77.8437L66.0734 78.0072C66.0924 69.562 66.0924 61.1154 66.0734 52.6676C58.3406 53.5867 50.6078 54.6147 42.8132 55.1171ZM20.5796 57.5509C20.3657 64.3269 20.3515 71.1067 20.6034 77.8826C26.6489 78.015 32.6977 78.002 38.7495 77.8437C38.3836 70.4836 38.5357 63.1158 38.4881 55.7518C32.4949 56.2075 26.5444 56.9006 20.5796 57.5509Z" fill="white"/>
</svg>
