<svg width="123" height="50" viewBox="0 0 123 50" fill="none" xmlns="http://www.w3.org/2000/svg">
<g clip-path="url(#clip0_1_57094)">
<path d="M19.6758 46.3304L20.8599 44.1638H19.6002L19.6758 46.3304ZM103.078 45.3794L103.122 44.0189H102.272L103.078 45.3794ZM121.469 21.874C121.381 21.874 114.711 20.8411 109.95 22.8818L110.038 23.8895L108.778 23.4864L108.35 23.7446L116.966 27.5866H117.212V27.7126L118.345 28.2164H117.212V35.4532C117.169 36.3973 116.807 37.2989 116.185 38.0103V40.7753C116.185 43.2379 112.652 43.9749 112.501 44H103.765L103.714 45.6124L103.67 46.9603H103.884V46.6076H117.558V46.954H118.818L121.646 21.8299L121.595 21.8677L121.469 21.874ZM18.9452 44.2709V44.1638H11.3368C7.35627 44.1638 6.92798 41.5059 6.92798 41.4807V37.6639C6.64807 37.2771 6.42337 36.8531 6.26036 36.4043V36.3224L5.56754 28.0212H3.98666L5.52345 27.511V27.4166H5.82577L15.563 24.217C13.6735 22.7306 9.8504 21.1245 2.11606 21.8929H1.99639L4.08743 47.1492H19.0837L18.9452 44.2709ZM103.821 43.3954H112.425C112.425 43.3954 115.543 42.7656 115.543 40.7942V38.5835C115.047 38.9621 114.472 39.2246 113.861 39.3519H62.517L19.342 39.7802H18.7121L11.1542 39.8558C9.81575 39.8551 8.52856 39.3411 7.55781 38.4197V41.4681C7.55781 41.5185 7.92941 43.7229 11.6895 43.5529H21.918L101.17 43.4143H103.821V43.3954ZM60.4638 23.3982C59.2608 22.6046 57.4657 23.0581 57.4469 23.0644H57.3146L23.8642 23.3478L20.904 25.5649L20.589 25.8042L20.2741 26.0372L19.9844 26.2577C19.8764 26.4849 19.7088 26.6786 19.4994 26.8182C19.3087 26.9314 19.0914 26.9923 18.8696 26.9946H18.7059C18.5996 26.9803 18.4945 26.9593 18.3909 26.9316C18.2815 26.9035 18.1741 26.8677 18.0697 26.8245C17.8245 26.7209 17.5885 26.5965 17.3643 26.4529L17.2635 26.3899L17.2257 26.2703C16.9765 25.6564 16.591 25.1072 16.0983 24.6642L7.75306 27.4166L18.1075 27.5425H20.9355L62.2021 28.0401L61.503 25.2373C61.47 24.8747 61.3602 24.5231 61.1811 24.2061C61.0019 23.889 60.7574 23.6136 60.4638 23.3982ZM105.881 26.6671L105.749 26.9694L105.566 26.8749C105.229 26.9885 104.876 27.05 104.521 27.0576H103.991C103.903 27.0337 103.816 27.0021 103.733 26.9631H103.62C103.571 26.9309 103.525 26.8951 103.481 26.856V26.9316L98.6757 23.3038L66.2204 23.4486H66.1763C65.8125 23.3535 65.4419 23.2862 65.0678 23.2471H63.8082C63.4952 23.2776 63.1978 23.3979 62.9516 23.5935C62.7939 23.7491 62.6787 23.9426 62.617 24.1553C62.5552 24.3681 62.549 24.5932 62.5989 24.8091L63.2287 28.1094H63.2791L72.4306 28.0149L103.626 27.7126H104.332L115.436 27.6055L107.764 24.1792C106.934 24.8416 106.277 25.6952 105.849 26.6671H105.881ZM17.2698 5.90778H15.2607L15.0843 11.5763C15.9094 11.6204 16.6904 11.6896 17.421 11.803L17.2698 5.90778ZM108.331 11.5763L107.852 6.10303L105.812 6.2164L105.957 11.7904C106.763 11.677 107.575 11.6015 108.331 11.57V11.5763ZM63.7578 22.5983H65.1056L97.4727 22.0441C96.7673 19.1658 97.1578 16.8165 98.6505 15.0718C100.005 13.6373 101.761 12.6451 103.689 12.225L104.004 12.1368L104.319 12.0675L105.138 11.8975H105.302L105.138 5.59916L105.069 3.01055C104.998 2.33322 104.738 1.68942 104.319 1.15254C104.225 1.03487 104.12 0.927217 104.004 0.831329C103.978 0.80248 103.951 0.775141 103.922 0.749451C103.77 0.624544 103.605 0.514853 103.431 0.421938C103.17 0.283985 102.893 0.17824 102.606 0.107022C101.882 -0.0522987 101.134 -0.0736661 100.401 0.0440383L88.4346 0.100723L65.874 0.245585H65.5024C65.0729 0.245594 64.6467 0.320182 64.2427 0.466026C64.0193 0.541525 63.8074 0.647497 63.6129 0.780942L63.4114 0.9384C63.0703 1.27753 62.8078 1.68736 62.6424 2.13899C62.477 2.59061 62.4127 3.07302 62.454 3.55221L62.9831 22.6109L63.7578 22.5983ZM17.8871 5.59286V5.90778L18.0445 11.9101L18.4035 11.9857C18.5131 11.9989 18.6208 12.0242 18.7247 12.0612L19.046 12.1368C19.4805 12.2565 19.8962 12.3888 20.3056 12.5336L20.6205 12.6533L20.9355 12.7918C22.1319 13.3112 23.1877 14.1078 24.0153 15.1159C26.4969 18.1769 25.4262 22.0441 25.3758 22.1889V22.2897L24.8152 22.7117L61.673 22.1323L61.1692 3.23729C61.0855 2.37148 60.6757 1.56988 60.0229 0.995085L59.7457 0.793539C59.5471 0.667407 59.336 0.561888 59.1159 0.478623C58.2286 0.169116 57.2775 0.0889529 56.3509 0.245585L21.3071 0.415639H20.9292C20.7184 0.41442 20.5079 0.429158 20.2993 0.459728C19.7444 0.530879 19.2218 0.760488 18.794 1.12105C18.4545 1.45731 18.1928 1.86393 18.0274 2.31226C17.862 2.7606 17.7969 3.23975 17.8367 3.71596L17.8808 5.29054L17.8871 5.59286ZM14.2277 18.8193L14.5427 18.939L14.8513 19.0524C15.3492 19.2551 15.835 19.4865 16.3062 19.7452C16.4762 19.8397 16.64 19.9404 16.8038 20.0475L17.2572 20.3435C17.3895 20.438 17.5281 20.5325 17.654 20.6396L17.7611 20.7214L17.9752 20.9104L18.0886 21.0112L18.2965 21.2001C18.3405 21.2379 18.3783 21.2883 18.4224 21.3324C18.6998 21.6143 18.9546 21.9175 19.1845 22.2393C19.2601 22.3464 19.3294 22.4598 19.3987 22.5669C19.4393 22.6269 19.4751 22.6901 19.5057 22.7558L19.575 22.8692L19.6695 23.0329L19.701 23.1085C19.7388 23.1841 19.7703 23.266 19.8081 23.3478V23.3982C19.9728 23.7633 20.1035 24.1428 20.1986 24.5319C20.2174 24.7751 20.2174 25.0194 20.1986 25.2625L20.2552 25.2184L20.5702 24.9854L20.8851 24.7461L22.7746 23.3289H22.8124L23.2029 23.0392L23.2406 23.0077L23.6248 22.718H23.6689L24.7459 21.9118C24.8908 21.282 25.5395 18.0447 23.4863 15.5001C22.7813 14.6507 21.8945 13.9706 20.8914 13.5099L20.5765 13.365C20.4757 13.3209 20.3686 13.2705 20.2615 13.2327C19.8742 13.0777 19.4789 12.9432 19.0775 12.8296L18.7499 12.7415L18.4287 12.6659L18.0319 12.5777L17.717 12.521L17.4021 12.4643C16.6156 12.3407 15.8229 12.2608 15.0276 12.225H14.3978C13.4593 12.225 12.4579 12.225 11.3998 12.3069L1.9523 17.5597C4.51572 17.4085 9.91968 17.3266 14.2277 18.8571V18.8193ZM14.1144 22.5165H14.1459C14.929 22.885 15.6563 23.362 16.3062 23.9336L16.5518 24.1729L16.7975 24.4249C17.2217 24.8733 17.5591 25.3965 17.7926 25.9679C17.8681 26.0194 17.9482 26.0637 18.0319 26.1002L18.3531 26.2514C18.458 26.2882 18.5654 26.3176 18.6744 26.3395C18.8484 26.382 19.0321 26.3597 19.1908 26.2766L19.2664 26.2073C19.3997 26.0687 19.4933 25.8969 19.5372 25.7097C19.6176 25.3674 19.6452 25.0148 19.6191 24.6642C19.5267 24.3061 19.4045 23.9564 19.2538 23.6187C19.216 23.5368 19.1845 23.4612 19.1467 23.3856V23.3038C19.1026 23.2156 19.046 23.1337 19.0019 23.0455L18.8948 22.8566L18.8444 22.7747C18.7877 22.6865 18.7247 22.6046 18.6681 22.5228L18.5295 22.3401L18.4161 22.1889L18.3783 22.1512C18.3217 22.0819 18.2587 22.0189 18.1957 21.9496L18.0571 21.8048C17.9941 21.7418 17.9312 21.6725 17.8619 21.6095L17.7359 21.4961C17.2621 21.0703 16.7425 20.6985 16.1865 20.3876C16.0039 20.2806 15.8149 20.1861 15.6197 20.0916L14.9898 19.7956L14.9017 19.7515L14.5867 19.6255L14.2088 19.5248C13.5041 19.2652 12.7823 19.0548 12.0485 18.8949C7.17991 17.7486 1.64368 18.1832 0.711531 18.2651C0.258052 18.8949 -0.182831 19.7263 0.0816988 20.3246C0.219163 20.5318 0.397199 20.7089 0.605046 20.8453C0.812893 20.9817 1.04624 21.0746 1.29098 21.1182L1.61219 21.1875C1.72038 21.1962 1.82776 21.213 1.93341 21.2379H2.07827C8.05538 20.6396 11.7903 21.4143 14.1144 22.4976V22.5165ZM122.981 18.8949C122.927 18.7292 122.818 18.587 122.672 18.4918L122.326 18.4351C118.977 17.7931 115.542 17.7356 112.173 18.2651L111.808 18.3407L111.216 18.4792L111.033 18.5233C110.55 18.648 110.074 18.8016 109.61 18.9831L109.301 19.1028L108.999 19.2413C108.136 19.6059 107.33 20.0915 106.605 20.6837C106.454 20.8033 106.322 20.923 106.183 21.049C106.083 21.137 105.988 21.2317 105.9 21.3324C105.799 21.4332 105.698 21.5339 105.61 21.641L105.377 21.9181C105.295 22.0252 105.207 22.1323 105.131 22.2393C105.045 22.3374 104.967 22.4427 104.898 22.5543L104.867 22.5983C104.798 22.7054 104.735 22.8125 104.665 22.9133L104.489 23.2282C104.451 23.2912 104.413 23.3541 104.382 23.4171C104.262 23.6502 104.162 23.8769 104.067 24.0973C103.935 24.4249 103.834 24.7272 103.752 24.998C103.677 25.2586 103.618 25.5237 103.576 25.7916C103.608 25.8965 103.66 25.9946 103.727 26.0813V26.1128C103.78 26.1824 103.846 26.2403 103.922 26.2829L104.01 26.3144C104.1 26.345 104.193 26.3661 104.288 26.3773H104.325C104.664 26.3967 105.004 26.3519 105.327 26.2451C105.747 25.3312 106.354 24.5157 107.109 23.8517L107.367 23.625L107.651 23.4045L107.953 23.1904L108.293 22.9636L108.659 22.7558C108.862 22.6341 109.072 22.5248 109.288 22.4283L109.591 22.2897L109.893 22.1575C114.063 20.4443 119.41 20.9356 121.079 21.1434L121.438 21.1938C121.477 21.1492 121.522 21.1091 121.57 21.0741L121.809 20.8537C122.981 19.7956 123.063 19.1784 122.981 18.8949ZM104.332 12.7478L104.017 12.8233L103.702 12.9052C101.955 13.2997 100.364 14.2027 99.1292 15.5001C97.7498 17.1125 97.4097 19.3169 98.1088 22.0504L98.493 22.3338L98.8835 22.6739L99.274 22.9636L99.696 23.2786L102.814 25.5963L102.877 25.6404C103.03 24.8274 103.3 24.0405 103.677 23.3038L103.847 22.9888L103.985 22.7432L104.029 22.6739V22.6361C104.092 22.5291 104.162 22.422 104.231 22.3212L104.275 22.2519L104.458 22C104.759 21.5851 105.096 21.1974 105.465 20.8411C105.56 20.7529 105.648 20.6648 105.749 20.5829L106.026 20.3435L106.07 20.3058C106.938 19.5792 107.913 18.9907 108.961 18.5611L109.269 18.4414L109.572 18.3218C112.532 17.2259 116.311 16.9802 120.909 17.5849L120.525 17.3455L112.173 12.2691C111.126 12.1821 110.074 12.1548 109.024 12.1872H108.394C107.638 12.225 106.813 12.2943 105.975 12.4139H105.346L105.182 12.5966C104.893 12.6132 104.608 12.6639 104.332 12.7478ZM20.6142 28.2038H18.1327L6.20367 28.0275L6.83351 36.2153C6.9363 36.4976 7.06934 36.7679 7.2303 37.0215C7.29958 37.1349 7.36886 37.2419 7.44444 37.3427C7.52322 37.4535 7.6095 37.5587 7.70267 37.6576C8.1335 38.1477 8.6633 38.5408 9.25714 38.8111C9.85099 39.0814 10.4954 39.2228 11.1479 39.2259L18.6681 39.1503H19.2979L48.3395 38.8543L62.4981 38.7158V37.4561L62.6682 28.9722V28.7392L20.9229 28.2353L20.6142 28.2038ZM104.237 28.3424H103.607L72.6258 28.6384L63.3169 28.7266L63.172 37.4624V38.7221H113.817C114.049 38.6734 114.275 38.5995 114.491 38.5016C114.835 38.3364 115.155 38.1244 115.442 37.8718C116.127 37.2373 116.538 36.3607 116.588 35.428V28.2227L104.332 28.3424H104.237ZM5.66831 49.2088H19.2664V47.779H5.66831V49.2088ZM104.514 49.2088H116.928V47.2374H104.502L104.514 49.2088Z" fill="white"/>
</g>
<defs>
<clipPath id="clip0_1_57094">
<rect width="123" height="49.2088" fill="white"/>
</clipPath>
</defs>
</svg>
