<svg width="123" height="80" viewBox="0 0 123 80" fill="none" xmlns="http://www.w3.org/2000/svg">
<g clip-path="url(#clip0_1_57100)">
<path d="M56.2536 0.417846C60.5567 -0.480488 65.3134 -0.0088625 69.0549 2.43012C70.0817 3.10165 70.9531 3.98486 71.6108 5.02057C72.2685 6.05628 72.6972 7.22059 72.8683 8.43548C73.4523 12.3747 73.7038 16.4127 73.0345 20.3654C75.3837 20.9942 74.9525 23.806 74.382 25.5892C73.8116 27.3724 73.2726 29.9955 70.9818 30.3504C71.0223 32.695 70.7123 35.4978 68.471 36.8139C68.5039 37.811 68.5429 38.8082 68.5878 39.8053C69.4053 39.9625 70.2227 40.1198 71.0357 40.2859L71.2379 42.9046C75.4017 45.9544 80.7108 46.3677 85.189 48.7438C87.2282 49.9161 89.4741 51.4747 89.9277 53.9541C91.8681 62.2907 94.3565 70.5329 95.3806 79.0536C72.1901 79.1165 48.9996 79.0536 25.8091 79.076C27.1566 71.8624 28.6299 64.6623 30.1435 57.4801C31.0059 53.1276 35.1383 50.6527 38.7137 48.6539C42.7562 46.6776 46.8346 44.8135 50.7603 42.6171C50.8502 41.7907 50.9325 40.9642 51.0074 40.1377L53.7024 39.8008C53.5856 38.8756 53.4688 37.9503 53.3386 37.025C51.0568 35.5877 50.3157 32.8432 50.1944 30.2875C49.57 30.027 48.6807 30.0494 48.3663 29.3308C47.8946 28.2797 47.9171 27.0849 47.6745 25.9845C47.432 24.884 47.0098 23.6712 47.2613 22.4989C47.6208 21.8662 48.0136 21.2529 48.4381 20.6618C48.0698 18.9954 47.0906 17.4817 47.0906 15.721C47.0277 12.2848 46.9783 8.60617 48.6448 5.49344C49.2242 4.28069 50.5582 3.82703 51.7889 3.65634C52.0629 1.48237 54.5019 0.943372 56.2536 0.417846Z" fill="white"/>
<path d="M27.4755 4.80597C28.4516 3.60532 29.5439 2.50401 30.7365 1.51807C30.7994 2.54217 30.9027 3.56178 31.0464 4.5769L31.4417 3.43152C33.6207 4.41388 35.7346 5.53459 37.7705 6.7868C39.8142 8.0265 41.4761 10.1331 41.6558 12.5766C41.7456 14.8036 41.7006 17.0341 41.521 19.2557C41.9971 19.8306 42.9179 20.2528 42.8685 21.1152C42.9 22.8131 43.0078 24.5873 42.4553 26.2223C42.2666 26.8466 41.4491 26.8556 40.982 27.1835C40.4325 30.4779 38.9394 33.5422 36.6835 36.0051C36.8796 37.6559 37.1796 39.2926 37.5818 40.9056C39.3785 41.6781 41.1123 42.5585 42.8326 43.4838C37.1282 45.9497 30.5434 48.748 27.9382 54.8657C26.676 59.3079 25.9753 63.9029 24.8659 68.3901H0.0583631C-2.86587e-05 62.6992 -0.476146 56.595 2.51082 51.47C4.12782 48.2944 7.63133 46.9064 10.8294 45.8778C14.9572 44.71 18.7617 42.6887 22.5841 40.7798C22.8446 39.1763 23.3567 37.6042 23.4241 35.9737C21.8071 33.4134 20.4146 30.687 19.8666 27.6776C19.2603 27.3317 18.335 27.2284 18.2047 26.3795C17.787 24.6637 17.7556 22.8805 17.6118 21.1242C17.4187 20.2753 18.2227 19.8037 18.6943 19.2557C18.5191 15.842 17.6298 11.9702 19.8083 8.98323C21.834 6.44094 25.0725 5.34946 27.4441 3.20694L27.4755 4.80597Z" fill="white"/>
<path d="M91.9717 4.39305C95.9782 3.04555 100.317 4.6356 103.578 7.03415C106.228 9.59441 106.938 13.3764 107.437 16.8709C108.07 20.3115 108.182 23.833 109.004 27.2377C109.601 29.7935 110.985 32.0573 111.919 34.4918C110.823 33.5882 109.794 32.6048 108.842 31.5497C109.186 32.8404 109.711 34.0758 110.401 35.2194C107.773 36.3513 105.011 37.0161 102.316 37.9908C102.397 38.8891 102.253 39.7874 102.568 40.6409C103.493 41.382 104.688 41.8401 105.339 42.8867C106.062 43.9288 106.57 45.3122 107.926 45.676C110.446 46.5205 112.544 48.3306 115.171 48.8921C116.824 49.44 118.85 49.2694 120.112 50.6303C121.298 51.8745 122.264 53.4781 122.214 55.2568C122.403 60.1976 122.78 65.1025 122.991 70.0344C114.22 70.0344 105.445 70.0344 96.6655 70.0344C95.7671 65.0082 94.3388 60.0943 93.1171 55.14C92.7802 53.5185 92.5511 51.8072 91.5495 50.4372C89.663 47.7826 86.7164 46.1072 83.7474 44.9304C84.5284 43.0443 86.0001 41.5276 87.8618 40.6903C87.8843 39.7919 87.9157 38.8487 87.9382 37.9279C85.2431 37.061 82.5481 36.3423 79.9475 35.2329C80.5552 34.1283 81.0158 32.949 81.3174 31.7249C80.4217 32.7761 79.397 33.7103 78.2676 34.5052C79.1659 32.5424 80.3607 30.6963 81.03 28.6256C82.0361 25.3108 81.9957 21.8118 82.638 18.425C83.2803 15.0383 83.4779 11.4989 85.4498 8.61073C86.8871 6.31099 89.5327 5.23748 91.9717 4.39305Z" fill="white"/>
</g>
<defs>
<clipPath id="clip0_1_57100">
<rect width="123" height="79.0759" fill="white"/>
</clipPath>
</defs>
</svg>
