<svg width="74" height="58" viewBox="0 0 74 58" fill="none" xmlns="http://www.w3.org/2000/svg">
<g clip-path="url(#clip0_1_56957)">
<path d="M72.0973 0.349609C71.8211 0.349609 71.5562 0.451395 71.3609 0.632574C71.1656 0.813753 71.0559 1.05948 71.0559 1.31571V12.1575H23.1876C23.5853 11.5923 23.7983 10.9325 23.8009 10.2575V8.4756C23.7978 7.55406 23.4019 6.67106 22.6995 6.01943C21.9971 5.3678 21.0453 5.00046 20.052 4.99763H7.32412C6.33682 5.0089 5.3939 5.37996 4.69897 6.03069C4.00405 6.68141 3.61287 7.55959 3.6099 8.4756V10.2468C3.6103 10.9254 3.82337 11.5892 4.22315 12.1575H2.22141V1.31571C2.22141 1.05948 2.1117 0.813753 1.9164 0.632574C1.72111 0.451395 1.45623 0.349609 1.18004 0.349609C0.903853 0.349609 0.638977 0.451395 0.443682 0.632574C0.248387 0.813753 0.138672 1.05948 0.138672 1.31571L0.138672 56.3835C0.138672 56.6397 0.248387 56.8855 0.443682 57.0666C0.638977 57.2478 0.903853 57.3496 1.18004 57.3496C1.45623 57.3496 1.72111 57.2478 1.9164 57.0666C2.1117 56.8855 2.22141 56.6397 2.22141 56.3835V48.0536H71.0559V56.3835C71.0559 56.6397 71.1656 56.8855 71.3609 57.0666C71.5562 57.2478 71.8211 57.3496 72.0973 57.3496C72.3735 57.3496 72.6384 57.2478 72.8337 57.0666C73.029 56.8855 73.1387 56.6397 73.1387 56.3835V1.31571C73.1387 1.05948 73.029 0.813753 72.8337 0.632574C72.6384 0.451395 72.3735 0.349609 72.0973 0.349609V0.349609ZM5.69264 8.4756C5.69264 8.06564 5.86819 7.67247 6.18066 7.38258C6.49313 7.09269 6.91693 6.92984 7.35883 6.92984H20.0867C20.5286 6.92984 20.9524 7.09269 21.2649 7.38258C21.5773 7.67247 21.7529 8.06564 21.7529 8.4756V10.2468C21.7529 10.6567 21.5773 11.0499 21.2649 11.3398C20.9524 11.6297 20.5286 11.7925 20.0867 11.7925H7.35883C7.14003 11.7925 6.92336 11.7526 6.72121 11.6749C6.51906 11.5972 6.33538 11.4833 6.18066 11.3398C6.02594 11.1963 5.90321 11.0259 5.81947 10.8383C5.73574 10.6508 5.69264 10.4498 5.69264 10.2468V8.4756ZM40.9951 14.079L30.7318 17.149L27.9085 14.079H40.9951ZM2.61482 14.079H25.2357L29.5863 18.8988C29.7213 19.0544 29.9061 19.1663 30.114 19.2183C30.3219 19.2704 30.5422 19.26 30.7434 19.1886L46.9424 14.3581C47.1087 14.3008 47.2561 14.2047 47.3706 14.079H70.6047V20.3694H2.61482V14.079ZM70.2113 46.1214H2.23298V39.831H70.2113V46.1214ZM5.69264 35.988V34.2276C5.69112 34.0237 5.73309 33.8215 5.81614 33.6327C5.89919 33.444 6.02168 33.2723 6.17655 33.1276C6.33142 32.9829 6.51562 32.8681 6.71853 32.7898C6.92144 32.7114 7.13905 32.6711 7.35883 32.6711H20.0867C20.3065 32.6711 20.5241 32.7114 20.727 32.7898C20.9299 32.8681 21.1141 32.9829 21.269 33.1276C21.4238 33.2723 21.5463 33.444 21.6294 33.6327C21.7124 33.8215 21.7544 34.0237 21.7529 34.2276V35.988C21.7544 36.1914 21.7124 36.3931 21.6292 36.5812C21.546 36.7694 21.4233 36.9404 21.2683 37.0842C21.1133 37.2281 20.929 37.3419 20.7261 37.419C20.5233 37.4962 20.3059 37.5352 20.0867 37.5338H7.35883C7.1396 37.5352 6.92224 37.4962 6.71939 37.419C6.51655 37.3419 6.33226 37.2281 6.17723 37.0842C6.0222 36.9404 5.89953 36.7694 5.81634 36.5812C5.73315 36.3931 5.6911 36.1914 5.69264 35.988ZM23.1876 37.9202C23.5856 37.3512 23.7985 36.6878 23.8009 36.0095V34.2276C23.8009 33.3042 23.4063 32.4184 22.7036 31.7645C22.0008 31.1105 21.0473 30.7417 20.052 30.7389H7.32412C6.33482 30.7502 5.39017 31.1227 4.69492 31.7758C3.99966 32.4288 3.60983 33.3097 3.6099 34.2276V35.988C3.60781 36.6737 3.8209 37.345 4.22315 37.9202H2.22141V22.3016H71.0559V37.9202H23.1876Z" fill="#939598"/>
</g>
<defs>
<clipPath id="clip0_1_56957">
<rect width="73" height="57" fill="white" transform="translate(0.138672 0.349609)"/>
</clipPath>
</defs>
</svg>
