<svg width="68" height="59" viewBox="0 0 68 59" fill="none" xmlns="http://www.w3.org/2000/svg">
<g clip-path="url(#clip0_1_56980)">
<path d="M66.3501 8.63322H57.916V2.66073C57.916 2.21799 57.7613 1.79339 57.486 1.48033C57.2106 1.16727 56.8372 0.991396 56.4478 0.991396H12.14C11.9418 0.981369 11.7438 1.01713 11.5581 1.09652C11.3723 1.17591 11.2027 1.29728 11.0594 1.45331C10.916 1.60933 10.802 1.79676 10.7242 2.00429C10.6464 2.21181 10.6063 2.43512 10.6065 2.66073V8.63322H2.28658C1.90277 8.63312 1.53419 8.80389 1.25976 9.10897C0.985333 9.41405 0.826888 9.82919 0.818359 10.2655V52.9262C0.818359 53.3689 0.973047 53.7935 1.24839 54.1066C1.52374 54.4196 1.89719 54.5955 2.28658 54.5955H6.28342V57.2293C6.28342 57.4485 6.3214 57.6656 6.39518 57.8681C6.46897 58.0707 6.57712 58.2547 6.71345 58.4097C6.84979 58.5647 7.01165 58.6877 7.18978 58.7716C7.36791 58.8555 7.55883 58.8987 7.75164 58.8987C7.94445 58.8987 8.13538 58.8555 8.31351 58.7716C8.49164 58.6877 8.6535 58.5647 8.78984 58.4097C8.92617 58.2547 9.03432 58.0707 9.10811 57.8681C9.18189 57.6656 9.21987 57.4485 9.21987 57.2293V54.781H59.9389V57.4148C59.9389 57.8575 60.0936 58.2821 60.3689 58.5952C60.6443 58.9083 61.0177 59.0841 61.4071 59.0841C61.7965 59.0841 62.17 58.9083 62.4453 58.5952C62.7207 58.2821 62.8753 57.8575 62.8753 57.4148V54.781H66.3501C66.7395 54.781 67.113 54.6051 67.3883 54.292C67.6637 53.979 67.8184 53.5544 67.8184 53.1116V10.2655C67.8098 9.82919 67.6514 9.41405 67.377 9.10897C67.1025 8.80389 66.7339 8.63312 66.3501 8.63322ZM13.6082 4.33006H55.0285V8.63322H51.57C51.1806 8.63322 50.8072 8.8091 50.5318 9.12216C50.2565 9.43522 50.1018 9.85982 50.1018 10.3026V33.1539H18.5349V10.2655C18.5349 9.82273 18.3803 9.39812 18.1049 9.08506C17.8296 8.772 17.4561 8.59613 17.0667 8.59613H13.6082V4.33006ZM64.8819 51.3496H3.75481V11.9719H15.5985V34.8232C15.5985 35.2659 15.7532 35.6905 16.0285 36.0036C16.3039 36.3166 16.6773 36.4925 17.0667 36.4925H51.57C51.9594 36.4925 52.3329 36.3166 52.6082 36.0036C52.8835 35.6905 53.0382 35.2659 53.0382 34.8232V11.9719H64.8819V51.3496Z" fill="#939598"/>
</g>
<defs>
<clipPath id="clip0_1_56980">
<rect width="67" height="58" fill="white" transform="translate(0.818359 0.991211)"/>
</clipPath>
</defs>
</svg>
