<svg width="65" height="32" viewBox="0 0 65 32" fill="none" xmlns="http://www.w3.org/2000/svg">
<path d="M1.23828 9.37207V28.426C1.23787 28.7253 1.2966 29.0217 1.41112 29.2983C1.52564 29.5749 1.69369 29.8262 1.90567 30.038C2.11765 30.2498 2.36939 30.4178 2.64651 30.5324C2.92362 30.647 3.22067 30.706 3.52066 30.706V30.706C4.12681 30.706 4.70814 30.4658 5.13675 30.0382C5.56537 29.6106 5.80616 29.0307 5.80616 28.426V14.1348H59.3732V28.426C59.3732 29.0307 59.614 29.6106 60.0426 30.0382C60.4712 30.4658 61.0526 30.706 61.6587 30.706V30.706C61.9587 30.706 62.2558 30.647 62.5329 30.5324C62.81 30.4178 63.0617 30.2498 63.2737 30.038C63.4857 29.8262 63.6537 29.5749 63.7683 29.2983C63.8828 29.0217 63.9415 28.7253 63.9411 28.426V9.37207H1.23828Z" stroke="#86878A" stroke-width="1.5" stroke-linecap="round"/>
<path d="M20.9639 4.19482H44.2285C44.2285 5.56799 43.6817 6.88492 42.7083 7.85589C41.735 8.82687 40.4149 9.37235 39.0384 9.37235H26.1539C24.7774 9.37235 23.4573 8.82687 22.484 7.85589C21.5107 6.88492 20.9639 5.56799 20.9639 4.19482V4.19482Z" stroke="#86878A" stroke-width="1.5" stroke-linecap="round" stroke-linejoin="round"/>
<path d="M26.8792 1.29395H27.0855C27.8567 1.29395 28.5963 1.59955 29.1416 2.14353C29.6869 2.68751 29.9932 3.42531 29.9932 4.19461V4.19461H23.9746C23.9746 3.42585 24.2805 2.68852 24.8251 2.14463C25.3698 1.60074 26.1085 1.29477 26.8792 1.29395V1.29395Z" stroke="#86878A" stroke-width="1.5" stroke-linecap="round" stroke-linejoin="round"/>
<path d="M38.2065 1.29395H38.4129C39.184 1.29395 39.9236 1.59955 40.4689 2.14353C41.0142 2.68751 41.3205 3.42531 41.3205 4.19461V4.19461H35.2988C35.2988 3.42531 35.6052 2.68751 36.1505 2.14353C36.6958 1.59955 37.4353 1.29395 38.2065 1.29395V1.29395Z" stroke="#86878A" stroke-width="1.5" stroke-linecap="round" stroke-linejoin="round"/>
<path d="M32.4846 1.29395H32.691C33.4622 1.29395 34.2017 1.59955 34.747 2.14353C35.2923 2.68751 35.5987 3.42531 35.5987 4.19461H29.5801C29.5801 3.42585 29.886 2.68852 30.4306 2.14463C30.9752 1.60074 31.714 1.29477 32.4846 1.29395V1.29395Z" stroke="#86878A" stroke-width="1.5" stroke-linecap="round" stroke-linejoin="round"/>
</svg>
