<svg width="83" height="56" viewBox="0 0 83 56" fill="none" xmlns="http://www.w3.org/2000/svg">
<path d="M0.5 7.79578H2.1013V56H9.6074L11.4756 50.4688H71.5244L73.3993 56H80.9054V7.79578H82.5V0H0.5V7.79578ZM7.70586 53.348H4.74345V50.4688H8.68666L7.70586 53.348ZM27.4819 47.8168H4.74345V7.79578H27.4819V47.8168ZM52.8692 19.3725H30.1308V7.79578H52.8692V19.3725ZM52.8692 33.5947H30.1308V22.0446H52.8692V33.5947ZM30.1308 47.8168V36.24H52.8692V47.8168H30.1308ZM78.2565 53.348H75.2941L74.32 50.4688H78.2565V53.348ZM78.2565 47.8168H55.5181V7.79578H78.2565V47.8168ZM3.16884 2.67207H79.8979V5.15042H3.16884V2.67207Z" fill="#939598"/>
<path d="M45.4634 12.2583H37.5303V14.9037H45.4634V12.2583Z" fill="#939598"/>
<path d="M22.5045 23.5742H19.8623V31.517H22.5045V23.5742Z" fill="#939598"/>
<path d="M45.4634 26.4805H37.5303V29.1258H45.4634V26.4805Z" fill="#939598"/>
<path d="M45.4634 40.709H37.5303V43.3543H45.4634V40.709Z" fill="#939598"/>
<path d="M63.1378 24.269H60.4956V32.2118H63.1378V24.269Z" fill="#939598"/>
</svg>
