<svg width="106" height="61" viewBox="0 0 106 61" fill="none" xmlns="http://www.w3.org/2000/svg">
<g clip-path="url(#clip0_1_56936)">
<path d="M21.7096 21.8291H47.1196C47.3583 21.8291 47.5872 21.7342 47.756 21.5655C47.9248 21.3967 48.0196 21.1678 48.0196 20.9291V17.4191C48.0196 17.1804 47.9248 16.9515 47.756 16.7827C47.5872 16.6139 47.3583 16.5191 47.1196 16.5191H41.1196V0.939062C41.1196 0.700368 41.0247 0.471449 40.856 0.302666C40.6872 0.133884 40.4583 0.0390625 40.2196 0.0390625L28.9996 0.0390625C28.7609 0.0390625 28.532 0.133884 28.3632 0.302666C28.1944 0.471449 28.0996 0.700368 28.0996 0.939062V16.5191H21.7096C21.4709 16.5191 21.242 16.6139 21.0732 16.7827C20.9044 16.9515 20.8096 17.1804 20.8096 17.4191V20.9291C20.8096 21.1678 20.9044 21.3967 21.0732 21.5655C21.242 21.7342 21.4709 21.8291 21.7096 21.8291ZM29.9196 1.82906H39.3396V16.5191H29.9196V1.82906ZM22.6096 18.3191H46.2196V20.0391H22.6096V18.3191Z" fill="#939598"/>
<path d="M104.41 0.708984H77C76.7613 0.708984 76.5324 0.803806 76.3636 0.972588C76.1948 1.14137 76.1 1.37029 76.1 1.60898V30.169H43.2C43.3185 30.0896 43.4159 29.9825 43.4838 29.8571C43.5518 29.7317 43.5882 29.5916 43.59 29.449C43.59 29.2103 43.4952 28.9814 43.3264 28.8126C43.1576 28.6438 42.9287 28.549 42.69 28.549H36.88C36.6413 28.549 36.4124 28.6438 36.2436 28.8126C36.0748 28.9814 35.98 29.2103 35.98 29.449C35.9818 29.5916 36.0182 29.7317 36.0862 29.8571C36.1541 29.9825 36.2515 30.0896 36.37 30.169H32.09C32.2085 30.0896 32.3059 29.9825 32.3738 29.8571C32.4418 29.7317 32.4782 29.5916 32.48 29.449C32.48 29.2103 32.3852 28.9814 32.2164 28.8126C32.0476 28.6438 31.8187 28.549 31.58 28.549H25.77C25.5313 28.549 25.3024 28.6438 25.1336 28.8126C24.9648 28.9814 24.87 29.2103 24.87 29.449C24.8718 29.5916 24.9082 29.7317 24.9762 29.8571C25.0441 29.9825 25.1415 30.0896 25.26 30.169H0.9C0.666413 30.1689 0.441926 30.2595 0.27398 30.4219C0.106034 30.5842 0.00778619 30.8055 0 31.039V59.589C0 59.8277 0.0948212 60.0566 0.263604 60.2254C0.432387 60.3942 0.661305 60.489 0.9 60.489H76.53C76.6637 60.568 76.8148 60.6127 76.97 60.619H104.41C104.528 60.619 104.645 60.5957 104.754 60.5505C104.864 60.5052 104.963 60.439 105.046 60.3554C105.13 60.2718 105.196 60.1726 105.241 60.0634C105.287 59.9542 105.31 59.8372 105.31 59.719V1.60898C105.31 1.49079 105.287 1.37376 105.241 1.26457C105.196 1.15538 105.13 1.05616 105.046 0.972588C104.963 0.889016 104.864 0.822722 104.754 0.777493C104.645 0.732264 104.528 0.708984 104.41 0.708984ZM103.51 2.50898V19.449H77.87V2.50898H103.51ZM76 45.309H47.46V31.969H76V45.309ZM45.66 38.039H23.15V32.039H45.66V38.039ZM23.15 39.839H45.66V58.689H23.15V39.839ZM1.8 31.969H21.35V58.689H1.8V31.969ZM47.46 58.689V47.109H76V58.689H47.46ZM77.87 58.819V21.249H103.51V58.819H77.87Z" fill="#939598"/>
<path d="M18.7398 41.249C18.5011 41.249 18.2722 41.3438 18.1034 41.5126C17.9347 41.6814 17.8398 41.9103 17.8398 42.149V49.149C17.8398 49.3877 17.9347 49.6166 18.1034 49.7854C18.2722 49.9542 18.5011 50.049 18.7398 50.049C18.9785 50.049 19.2075 49.9542 19.3762 49.7854C19.545 49.6166 19.6398 49.3877 19.6398 49.149V42.149C19.6398 41.9103 19.545 41.6814 19.3762 41.5126C19.2075 41.3438 18.9785 41.249 18.7398 41.249Z" fill="#939598"/>
<path d="M56.5797 39.5793H65.9097C66.1484 39.5793 66.3773 39.4845 66.5461 39.3157C66.7149 39.1469 66.8097 38.918 66.8097 38.6793C66.8097 38.4406 66.7149 38.2117 66.5461 38.0429C66.3773 37.8741 66.1484 37.7793 65.9097 37.7793H56.5797C56.341 37.7793 56.1121 37.8741 55.9433 38.0429C55.7745 38.2117 55.6797 38.4406 55.6797 38.6793C55.6797 38.918 55.7745 39.1469 55.9433 39.3157C56.1121 39.4845 56.341 39.5793 56.5797 39.5793Z" fill="#939598"/>
<path d="M66.1704 51.8691H56.8404C56.6017 51.8691 56.3728 51.964 56.204 52.1327C56.0353 52.3015 55.9404 52.5304 55.9404 52.7691C55.9404 53.0078 56.0353 53.2368 56.204 53.4055C56.3728 53.5743 56.6017 53.6691 56.8404 53.6691H66.1704C66.4091 53.6691 66.638 53.5743 66.8068 53.4055C66.9756 53.2368 67.0704 53.0078 67.0704 52.7691C67.0704 52.5304 66.9756 52.3015 66.8068 52.1327C66.638 51.964 66.4091 51.8691 66.1704 51.8691Z" fill="#939598"/>
<path d="M41.6197 42.2988H26.7497C26.6306 42.2988 26.5128 42.3224 26.4029 42.3683C26.2931 42.4141 26.1934 42.4813 26.1097 42.566C26.026 42.6506 25.9599 42.751 25.9153 42.8613C25.8706 42.9717 25.8483 43.0898 25.8497 43.2088V53.4788C25.8497 53.7175 25.9445 53.9464 26.1133 54.1152C26.2821 54.284 26.511 54.3788 26.7497 54.3788H41.6197C41.8576 54.3762 42.085 54.2806 42.2532 54.1124C42.4214 53.9441 42.5171 53.7167 42.5197 53.4788V43.2088C42.5197 42.9692 42.4252 42.7392 42.2567 42.5689C42.0882 42.3985 41.8593 42.3015 41.6197 42.2988ZM40.7197 52.5788H27.6497V44.1088H40.7197V52.5788Z" fill="#939598"/>
<path d="M82.3102 16.5093C82.5488 16.5093 82.7778 16.4145 82.9465 16.2457C83.1153 16.0769 83.2102 15.848 83.2102 15.6093V8.1793C83.2102 8.06111 83.1869 7.94407 83.1416 7.83488C83.0964 7.72569 83.0301 7.62647 82.9465 7.5429C82.863 7.45933 82.7638 7.39303 82.6546 7.34781C82.5454 7.30258 82.4283 7.2793 82.3102 7.2793C82.192 7.2793 82.0749 7.30258 81.9657 7.34781C81.8565 7.39303 81.7573 7.45933 81.6738 7.5429C81.5902 7.62647 81.5239 7.72569 81.4787 7.83488C81.4334 7.94407 81.4102 8.06111 81.4102 8.1793V15.6093C81.4102 15.848 81.505 16.0769 81.6738 16.2457C81.8425 16.4145 82.0715 16.5093 82.3102 16.5093Z" fill="#939598"/>
<path d="M81.9 25.1089C81.7818 25.1089 81.6648 25.1322 81.5556 25.1774C81.4464 25.2226 81.3472 25.2889 81.2636 25.3725C81.18 25.4561 81.1137 25.5553 81.0685 25.6645C81.0233 25.7737 81 25.8907 81 26.0089V33.4389C81 33.6776 81.0948 33.9065 81.2636 34.0753C81.4324 34.2441 81.6613 34.3389 81.9 34.3389C82.1387 34.3389 82.3676 34.2441 82.5364 34.0753C82.7052 33.9065 82.8 33.6776 82.8 33.4389V26.0389C82.804 25.9182 82.7837 25.7979 82.7403 25.6853C82.6969 25.5726 82.6312 25.4698 82.5472 25.383C82.4633 25.2962 82.3627 25.2272 82.2515 25.1801C82.1403 25.1331 82.0208 25.1088 81.9 25.1089Z" fill="#939598"/>
</g>
<defs>
<clipPath id="clip0_1_56936">
<rect width="105.31" height="60.58" fill="white" transform="translate(0 0.0390625)"/>
</clipPath>
</defs>
</svg>
