<svg width="55" height="69" viewBox="0 0 55 69" fill="none" xmlns="http://www.w3.org/2000/svg">
<g clip-path="url(#clip0_1_56932)">
<path d="M53.4379 3.30436L41.5679 0.0443589C41.4342 0.014504 41.2956 0.0151847 41.1623 0.0463504C41.029 0.0775161 40.9044 0.138363 40.7979 0.224359C40.6885 0.309746 40.6001 0.419012 40.5394 0.543803C40.4788 0.668594 40.4474 0.805605 40.4479 0.944359V3.41436H1.69785C1.45916 3.41436 1.23024 3.50918 1.06146 3.67796C0.892673 3.84675 0.797852 4.07566 0.797852 4.31436L0.797852 64.3144C0.797852 64.553 0.892673 64.782 1.06146 64.9508C1.23024 65.1195 1.45916 65.2144 1.69785 65.2144H4.79785V67.2144C4.79785 67.453 4.89267 67.682 5.06146 67.8508C5.23024 68.0195 5.45916 68.1144 5.69785 68.1144C5.93655 68.1144 6.16546 68.0195 6.33425 67.8508C6.50303 67.682 6.59785 67.453 6.59785 67.2144V65.2144H40.4379V67.8844C40.4365 68.0029 40.4589 68.1206 40.5036 68.2304C40.5484 68.3401 40.6146 68.4399 40.6985 68.5237C40.7823 68.6076 40.8821 68.6738 40.9919 68.7186C41.1017 68.7633 41.2193 68.7857 41.3379 68.7844C41.4142 68.7948 41.4915 68.7948 41.5679 68.7844L48.3979 66.9244V67.5244C48.3979 67.6425 48.4211 67.7596 48.4664 67.8688C48.5116 67.978 48.5779 68.0772 48.6615 68.1608C48.745 68.2443 48.8442 68.3106 48.9534 68.3559C49.0626 68.4011 49.1797 68.4244 49.2979 68.4244C49.416 68.4244 49.5331 68.4011 49.6423 68.3559C49.7515 68.3106 49.8507 68.2443 49.9342 68.1608C50.0178 68.0772 50.0841 67.978 50.1293 67.8688C50.1746 67.7596 50.1979 67.6425 50.1979 67.5244V66.3944L53.4379 65.5144C53.629 65.4621 53.7979 65.3488 53.9189 65.1918C54.0398 65.0348 54.1062 64.8426 54.1079 64.6444V4.17436C54.1062 3.97616 54.0398 3.78394 53.9189 3.62691C53.7979 3.46988 53.629 3.35662 53.4379 3.30436ZM40.4379 19.4444H28.8479V17.0444H40.4379V19.4444ZM37.5879 25.0444V45.8844H36.7979V25.0444C36.7973 24.9607 36.8276 24.8798 36.8829 24.817C36.9382 24.7543 37.0148 24.7142 37.0979 24.7044H37.1879H37.2879C37.3701 24.7162 37.4454 24.7569 37.5004 24.8192C37.5553 24.8815 37.5863 24.9613 37.5879 25.0444ZM32.2479 25.1444V45.9844H31.4779V25.0944C31.4797 25.0124 31.5111 24.9339 31.5662 24.8733C31.6213 24.8127 31.6965 24.774 31.7779 24.7644H31.8679H31.9679C32.0448 24.78 32.1142 24.821 32.165 24.8809C32.2158 24.9407 32.2449 25.0159 32.2479 25.0944V25.1444ZM37.4179 52.3244H28.8479V51.0444H37.4179V52.3244ZM28.8479 54.0444H37.4179V55.4544H28.8479V54.0444ZM38.3179 49.2044H28.8479V21.2044H30.9679V23.0744C30.5806 23.2447 30.2519 23.5251 30.0226 23.8807C29.7932 24.2362 29.6734 24.6513 29.6779 25.0744V46.8844C29.6765 47.0034 29.6988 47.1215 29.7435 47.2318C29.7881 47.3422 29.8542 47.4426 29.9379 47.5272C30.0216 47.6119 30.1213 47.6791 30.2311 47.7249C30.341 47.7708 30.4588 47.7944 30.5779 47.7944H33.1479C33.2669 47.7944 33.3847 47.7708 33.4946 47.7249C33.6044 47.6791 33.7041 47.6119 33.7878 47.5272C33.8715 47.4426 33.9376 47.3422 33.9822 47.2318C34.0269 47.1215 34.0492 47.0034 34.0479 46.8844V25.0944C34.0511 24.6831 33.9346 24.2798 33.7127 23.9336C33.4908 23.5873 33.1729 23.3131 32.7979 23.1444V21.2544H36.2979V23.0444C35.9098 23.2137 35.5804 23.4938 35.3509 23.8496C35.1214 24.2054 35.0021 24.621 35.0079 25.0444V46.7844C35.0079 47.0231 35.1027 47.252 35.2715 47.4208C35.4402 47.5895 35.6692 47.6844 35.9079 47.6844H38.4879C38.7265 47.6844 38.9555 47.5895 39.1242 47.4208C39.293 47.252 39.3879 47.0231 39.3879 46.7844V25.0444C39.395 24.6207 39.2762 24.2045 39.0465 23.8485C38.8169 23.4924 38.4867 23.2126 38.0979 23.0444V21.2544H40.4379V55.4844H39.2178V50.1344C39.2178 49.8957 39.123 49.6667 38.9542 49.498C38.7855 49.3292 38.5565 49.2344 38.3179 49.2344V49.2044ZM40.4379 9.45436H36.0679C35.8292 9.45436 35.6002 9.54918 35.4315 9.71796C35.2627 9.88675 35.1679 10.1157 35.1679 10.3544C35.1679 10.5931 35.2627 10.822 35.4315 10.9908C35.6002 11.1595 35.8292 11.2544 36.0679 11.2544H40.4379V15.2544H28.8479V5.21436H40.4379V9.45436ZM2.59785 5.21436H27.0479V63.3944H2.59785V5.21436ZM28.8479 63.3944V57.2844H40.4379V63.3944H28.8479ZM52.3078 63.9544L42.2379 66.6944V2.12436L52.3078 4.86436V63.9544Z" fill="#939598"/>
<path d="M45.1275 39.1642C45.3662 39.1642 45.5952 39.0694 45.7639 38.9006C45.9327 38.7318 46.0275 38.5029 46.0275 38.2642V29.7242C46.0275 29.4855 45.9327 29.2566 45.7639 29.0878C45.5952 28.919 45.3662 28.8242 45.1275 28.8242C44.8888 28.8242 44.6599 28.919 44.4911 29.0878C44.3224 29.2566 44.2275 29.4855 44.2275 29.7242V38.2642C44.2275 38.5029 44.3224 38.7318 44.4911 38.9006C44.6599 39.0694 44.8888 39.1642 45.1275 39.1642Z" fill="#939598"/>
<path d="M23.148 28.8242C22.9094 28.8242 22.6804 28.919 22.5117 29.0878C22.3429 29.2566 22.248 29.4855 22.248 29.7242V38.2642C22.248 38.5029 22.3429 38.7318 22.5117 38.9006C22.6804 39.0694 22.9094 39.1642 23.148 39.1642C23.3867 39.1642 23.6157 39.0694 23.7844 38.9006C23.9532 38.7318 24.048 38.5029 24.048 38.2642V29.7242C24.048 29.4855 23.9532 29.2566 23.7844 29.0878C23.6157 28.919 23.3867 28.8242 23.148 28.8242Z" fill="#939598"/>
</g>
<defs>
<clipPath id="clip0_1_56932">
<rect width="53.31" height="68.73" fill="white" transform="translate(0.797852 0.0444336)"/>
</clipPath>
</defs>
</svg>
