<svg width="36" height="83" viewBox="0 0 36 83" fill="none" xmlns="http://www.w3.org/2000/svg">
<g clip-path="url(#clip0_1_56968)">
<path d="M17.9611 56.3239C18.2786 56.3239 18.589 56.2294 18.8528 56.0524C19.1167 55.8754 19.3221 55.6239 19.443 55.3297C19.5639 55.0356 19.5949 54.7121 19.532 54.4003C19.4691 54.0885 19.3151 53.8025 19.0897 53.5785C18.8643 53.3544 18.5775 53.2026 18.2658 53.1421C17.954 53.0816 17.6314 53.1152 17.3388 53.2388C17.0462 53.3623 16.7968 53.5701 16.6222 53.8358C16.4477 54.1015 16.3559 54.4132 16.3585 54.7313C16.3619 55.1549 16.5322 55.5599 16.8324 55.8582C17.1326 56.1565 17.5383 56.3239 17.9611 56.3239Z" fill="#939598"/>
<path d="M17.9611 64.779C18.278 64.779 18.5879 64.6848 18.8514 64.5084C19.115 64.332 19.3204 64.0812 19.4417 63.7879C19.563 63.4945 19.5948 63.1717 19.5329 62.8602C19.4711 62.5488 19.3184 62.2627 19.0943 62.0381C18.8702 61.8136 18.5846 61.6607 18.2737 61.5987C17.9628 61.5368 17.6406 61.5686 17.3477 61.6901C17.0549 61.8116 16.8046 62.0174 16.6285 62.2814C16.4524 62.5455 16.3584 62.8559 16.3584 63.1734C16.3584 63.5993 16.5272 64.0076 16.8278 64.3087C17.1284 64.6098 17.536 64.779 17.9611 64.779Z" fill="#939598"/>
<path d="M17.9611 73.4802C18.278 73.4802 18.5879 73.386 18.8514 73.2096C19.115 73.0332 19.3204 72.7824 19.4417 72.489C19.563 72.1956 19.5948 71.8728 19.5329 71.5614C19.4711 71.2499 19.3184 70.9638 19.0943 70.7393C18.8702 70.5148 18.5846 70.3618 18.2737 70.2999C17.9628 70.2379 17.6406 70.2697 17.3477 70.3913C17.0549 70.5128 16.8046 70.7186 16.6285 70.9826C16.4524 71.2466 16.3584 71.5571 16.3584 71.8746C16.3618 72.2994 16.5317 72.7058 16.8315 73.0062C17.1314 73.3065 17.5371 73.4768 17.9611 73.4802Z" fill="#939598"/>
<path d="M34.2587 0.349609H1.58517C1.27666 0.349609 0.980792 0.472384 0.762646 0.690925C0.5445 0.909466 0.421947 1.20587 0.421947 1.51493V81.1713C0.420237 81.3254 0.449063 81.4784 0.506754 81.6213C0.564446 81.7641 0.649857 81.8941 0.758043 82.0037C0.866228 82.1133 0.995039 82.2003 1.13702 82.2597C1.27899 82.319 1.43132 82.3496 1.58517 82.3496C1.73902 82.3496 1.89134 82.319 2.03332 82.2597C2.17529 82.2003 2.30411 82.1133 2.41229 82.0037C2.52048 81.8941 2.60589 81.7641 2.66358 81.6213C2.72127 81.4784 2.7501 81.3254 2.74839 81.1713V77.015H33.0955V81.1713C33.0955 81.4804 33.2181 81.7768 33.4362 81.9953C33.6544 82.2139 33.9502 82.3367 34.2587 82.3367C34.5672 82.3367 34.8631 82.2139 35.0812 81.9953C35.2994 81.7768 35.4219 81.4804 35.4219 81.1713V1.51493C35.4219 1.20587 35.2994 0.909466 35.0812 0.690925C34.8631 0.472384 34.5672 0.349609 34.2587 0.349609V0.349609ZM19.0852 6.74595H28.6623V45.2534H19.0852V6.74595ZM2.74839 2.68026H16.7587V4.40235H6.01833C5.86448 4.40234 5.71215 4.43291 5.57018 4.49228C5.4282 4.55165 5.29939 4.63864 5.1912 4.74823C5.08302 4.85781 4.99761 4.98781 4.93992 5.13069C4.88222 5.27358 4.8534 5.4265 4.85511 5.58062V46.4188C4.85511 46.7278 4.97766 47.0242 5.19581 47.2428C5.41395 47.4613 5.70982 47.5841 6.01833 47.5841H16.7587V49.0731C16.7467 49.1547 16.7467 49.2376 16.7587 49.3191H2.74839V2.68026ZM16.7587 6.74595V45.2534H7.18155V6.74595H16.7587ZM33.0955 74.6844H2.74839V68.5599H33.0955V74.6844ZM33.0955 66.2293H2.74839V60.1049H33.0955V66.2293ZM33.0955 57.7742H2.74839V51.6498H33.0955V57.7742ZM33.0955 49.3191H19.0335C19.0395 49.2372 19.0395 49.155 19.0335 49.0731V47.5841H29.7739C30.0824 47.5841 30.3782 47.4613 30.5964 47.2428C30.8145 47.0242 30.9371 46.7278 30.9371 46.4188V5.52883C30.9371 5.21856 30.815 4.92081 30.5972 4.70021C30.3794 4.47961 30.0836 4.35397 29.7739 4.35056H19.0852V2.68026H33.0955V49.3191Z" fill="#939598"/>
<path d="M15.13 31.5158C15.4385 31.5158 15.7344 31.393 15.9525 31.1745C16.1707 30.9559 16.2932 30.6595 16.2932 30.3505V22.8924C16.2932 22.5833 16.1707 22.2869 15.9525 22.0684C15.7344 21.8498 15.4385 21.7271 15.13 21.7271C14.8215 21.7271 14.5256 21.8498 14.3075 22.0684C14.0894 22.2869 13.9668 22.5833 13.9668 22.8924V30.3505C13.9668 30.6595 14.0894 30.9559 14.3075 31.1745C14.5256 31.393 14.8215 31.5158 15.13 31.5158Z" fill="#939598"/>
<path d="M20.546 21.7271C20.2375 21.7271 19.9417 21.8498 19.7235 22.0684C19.5054 22.2869 19.3828 22.5833 19.3828 22.8924V30.3505C19.3828 30.6595 19.5054 30.9559 19.7235 31.1745C19.9417 31.393 20.2375 31.5158 20.546 31.5158C20.8545 31.5158 21.1504 31.393 21.3686 31.1745C21.5867 30.9559 21.7093 30.6595 21.7093 30.3505V22.8924C21.7093 22.5833 21.5867 22.2869 21.3686 22.0684C21.1504 21.8498 20.8545 21.7271 20.546 21.7271Z" fill="#939598"/>
</g>
<defs>
<clipPath id="clip0_1_56968">
<rect width="35" height="82" fill="white" transform="translate(0.421875 0.349609)"/>
</clipPath>
</defs>
</svg>
