<svg width="82" height="59" viewBox="0 0 82 59" fill="none" xmlns="http://www.w3.org/2000/svg">
<g clip-path="url(#clip0_1_56976)">
<path d="M80.1952 52.4983H78.4938V33.8975H80.1952C80.4555 33.8975 80.7052 33.8081 80.8893 33.6489C81.0733 33.4897 81.1768 33.2738 81.1768 33.0486C81.1768 32.8235 81.0733 32.6076 80.8893 32.4483C80.7052 32.2891 80.4555 32.1997 80.1952 32.1997H1.15831C0.897987 32.1997 0.648325 32.2891 0.464248 32.4483C0.280171 32.6076 0.176758 32.8235 0.176758 33.0486C0.176758 33.2738 0.280171 33.4897 0.464248 33.6489C0.648325 33.8081 0.897987 33.8975 1.15831 33.8975H3.14323V52.4889H1.15831C0.897987 52.4889 0.648325 52.5783 0.464248 52.7375C0.280171 52.8967 0.176758 53.1126 0.176758 53.3378C0.176758 53.5629 0.280171 53.7789 0.464248 53.9381C0.648325 54.0973 0.897987 54.1867 1.15831 54.1867H3.09961V57.1956C3.09961 57.4208 3.20302 57.6367 3.3871 57.7959C3.57117 57.9551 3.82084 58.0446 4.08116 58.0446H8.04009C8.30042 58.0446 8.55008 57.9551 8.73416 57.7959C8.91823 57.6367 9.02165 57.4208 9.02165 57.1956V54.1961H72.6263V57.2051C72.6263 57.4302 72.7298 57.6461 72.9138 57.8053C73.0979 57.9646 73.3476 58.054 73.6079 58.054H77.6105C77.8708 58.054 78.1204 57.9646 78.3045 57.8053C78.4886 57.6461 78.592 57.4302 78.592 57.2051V54.1961H80.2388C80.4992 54.1961 80.7488 54.1067 80.9329 53.9475C81.117 53.7883 81.2204 53.5724 81.2204 53.3472C81.2204 53.1221 81.117 52.9061 80.9329 52.7469C80.7488 52.5877 80.4992 52.4983 80.2388 52.4983H80.1952ZM7.05854 56.3562H5.06271V54.6206H7.05854V56.3562ZM76.5853 56.3562H74.5894V54.6206H76.5853V56.3562ZM76.5853 52.4983H34.9238V33.8975H76.5198V52.4889L76.5853 52.4983ZM10.7339 44.3864V52.4983H9.91595V44.3864H10.7339ZM12.697 44.3864H13.5259V52.4983H12.697V44.3864ZM15.4454 44.3864H16.2633V52.4983H15.4454V44.3864ZM18.2264 44.3864H19.0444V52.4983H18.2264V44.3864ZM21.0075 44.3864H21.8364V52.4983H21.0075V44.3864ZM23.7995 44.3864H24.6174V52.4983H23.8431L23.7995 44.3864ZM26.5806 44.3864H27.4421V52.4983H26.6133L26.5806 44.3864ZM29.3725 44.3864H30.1905V52.4983H29.3725V44.3864ZM32.1536 44.3864H32.917V52.4983H32.1536V44.3864ZM32.917 33.9353V42.6886H5.23721H5.10634V33.9164L32.917 33.9353ZM5.10634 52.4889V44.3204H5.23721H7.95285V52.4983H5.10634V52.4889Z" fill="#939598"/>
<path d="M37.0724 40.1797C36.8121 40.1797 36.5624 40.2691 36.3783 40.4283C36.1942 40.5875 36.0908 40.8035 36.0908 41.0286V45.6788C36.0908 45.9039 36.1942 46.1199 36.3783 46.2791C36.5624 46.4383 36.8121 46.5277 37.0724 46.5277C37.3327 46.5277 37.5824 46.4383 37.7664 46.2791C37.9505 46.1199 38.0539 45.9039 38.0539 45.6788V41.0286C38.0539 40.8035 37.9505 40.5875 37.7664 40.4283C37.5824 40.2691 37.3327 40.1797 37.0724 40.1797Z" fill="#939598"/>
<path d="M65.6687 0.0541992H17.6271C17.3667 0.0541992 17.1171 0.143639 16.933 0.302842C16.7489 0.462045 16.6455 0.67797 16.6455 0.903118V24.0031C16.6455 24.2283 16.7489 24.4442 16.933 24.6034C17.1171 24.7626 17.3667 24.8521 17.6271 24.8521H40.6718V28.9269H30.7144C30.4541 28.9269 30.2045 29.0163 30.0204 29.1755C29.8363 29.3347 29.7329 29.5506 29.7329 29.7758V32.9828C29.7329 33.208 29.8363 33.4239 30.0204 33.5831C30.2045 33.7423 30.4541 33.8317 30.7144 33.8317C30.9748 33.8317 31.2244 33.7423 31.4085 33.5831C31.5926 33.4239 31.696 33.208 31.696 32.9828V30.6247H51.6106V32.9828C51.6106 33.208 51.714 33.4239 51.8981 33.5831C52.0822 33.7423 52.3319 33.8317 52.5922 33.8317C52.8525 33.8317 53.1022 33.7423 53.2863 33.5831C53.4703 33.4239 53.5737 33.208 53.5737 32.9828V29.7758C53.5737 29.5506 53.4703 29.3347 53.2863 29.1755C53.1022 29.0163 52.8525 28.9269 52.5922 28.9269H42.6349V24.8521H65.6687C65.929 24.8521 66.1787 24.7626 66.3627 24.6034C66.5468 24.4442 66.6502 24.2283 66.6502 24.0031V0.903118C66.6502 0.67797 66.5468 0.462045 66.3627 0.302842C66.1787 0.143639 65.929 0.0541992 65.6687 0.0541992V0.0541992ZM64.6871 1.75204V20.6169H18.6195V1.75204H64.6871ZM18.6195 22.2864H61.0227V23.1542H18.6195V22.2864ZM62.9858 23.1542V22.2864H64.6871V23.1542H62.9858Z" fill="#939598"/>
<path d="M49.6252 13.2029C49.7996 13.3204 50.0148 13.3836 50.236 13.3821C50.3843 13.3809 50.5305 13.3515 50.6643 13.2961C50.7981 13.2407 50.9162 13.1606 51.0103 13.0614L58.5137 4.85518C58.6144 4.7704 58.6929 4.66791 58.7439 4.55463C58.7948 4.44135 58.817 4.31993 58.809 4.19858C58.8011 4.07723 58.763 3.95878 58.6975 3.85124C58.632 3.7437 58.5406 3.64957 58.4294 3.57524C58.3182 3.5009 58.1899 3.44807 58.053 3.42034C57.9162 3.39261 57.7741 3.39061 57.6363 3.41449C57.4985 3.43836 57.3682 3.48755 57.2543 3.55872C57.1404 3.6299 57.0455 3.7214 56.976 3.82705L49.4616 12.0333C49.3137 12.2103 49.2484 12.429 49.2787 12.6458C49.3091 12.8626 49.4328 13.0615 49.6252 13.2029Z" fill="#939598"/>
<path d="M55.798 9.69413L51.9154 13.8727C51.8343 13.9591 51.7738 14.0585 51.7376 14.1653C51.7013 14.272 51.69 14.384 51.7042 14.4946C51.7184 14.6052 51.7579 14.7122 51.8203 14.8095C51.8828 14.9067 51.967 14.9923 52.0681 15.0612C52.2427 15.1796 52.457 15.2458 52.6788 15.2498C52.8278 15.252 52.9753 15.2242 53.1097 15.1685C53.2441 15.1129 53.3617 15.0309 53.4531 14.9291L57.3357 10.7506C57.4168 10.6642 57.4773 10.5647 57.5135 10.458C57.5498 10.3512 57.5611 10.2393 57.5469 10.1287C57.5327 10.0181 57.4932 9.91105 57.4308 9.81378C57.3683 9.71651 57.2841 9.63095 57.183 9.56207C57.0823 9.49167 56.9664 9.43922 56.8421 9.40774C56.7178 9.37626 56.5875 9.36637 56.4587 9.37865C56.3299 9.39092 56.2053 9.42512 56.0919 9.47926C55.9785 9.53341 55.8786 9.60643 55.798 9.69413Z" fill="#939598"/>
<path d="M50.421 15.2875L49.723 16.0327C49.5627 16.2109 49.4899 16.4365 49.5205 16.6607C49.5511 16.8849 49.6827 17.0897 49.8866 17.2306C50.0602 17.3495 50.276 17.4128 50.4974 17.4098C50.6434 17.4103 50.7877 17.3826 50.9198 17.3288C51.0518 17.2749 51.1683 17.1963 51.2608 17.0986L51.9479 16.3534C52.031 16.266 52.0931 16.1651 52.1304 16.0567C52.1678 15.9482 52.1797 15.8344 52.1655 15.7219C52.1513 15.6094 52.1112 15.5005 52.0476 15.4016C51.984 15.3028 51.8982 15.2159 51.7952 15.1461C51.6947 15.0764 51.5791 15.0248 51.4553 14.9942C51.3314 14.9636 51.2018 14.9546 51.0739 14.9678C50.946 14.981 50.8224 15.016 50.7103 15.0709C50.5982 15.1258 50.4999 15.1994 50.421 15.2875Z" fill="#939598"/>
<path d="M44.7934 14.4294C44.9383 14.4297 45.0816 14.4029 45.2133 14.3508C45.3451 14.2987 45.4623 14.2225 45.5568 14.1275L52.1005 7.37392C52.2646 7.19927 52.3429 6.97586 52.3184 6.75181C52.2939 6.52775 52.1687 6.32097 51.9696 6.176C51.8709 6.10399 51.7567 6.04955 51.6336 6.01578C51.5105 5.98202 51.3809 5.9696 51.2522 5.97924C51.1235 5.98888 50.9983 6.02039 50.8837 6.07196C50.7692 6.12352 50.6675 6.19414 50.5845 6.27976L44.0409 13.0334C43.8866 13.2062 43.8143 13.4233 43.8386 13.6406C43.8629 13.8579 43.982 14.059 44.1717 14.203C44.341 14.3403 44.5615 14.4206 44.7934 14.4294Z" fill="#939598"/>
</g>
<defs>
<clipPath id="clip0_1_56976">
<rect width="81" height="58" fill="white" transform="translate(0.176758 0.0541992)"/>
</clipPath>
</defs>
</svg>
