<svg width="130" height="49" viewBox="0 0 130 49" fill="none" xmlns="http://www.w3.org/2000/svg">
<g clip-path="url(#clip0_1_56925)">
<path d="M129.91 31.1871C129.91 31.1871 129.91 31.1871 129.91 31.1172V18.0263C129.907 16.5156 129.417 15.0465 128.512 13.8388C127.608 12.6312 126.337 11.7499 124.892 11.327C124.892 11.327 124.892 11.327 124.892 11.243C124.233 8.32428 122.602 5.71815 120.268 3.85447C117.934 1.99079 115.036 0.980875 112.053 0.991291H19.2693C16.276 1.00164 13.3746 2.02906 11.038 3.90603C8.70141 5.78301 7.06751 8.39882 6.40271 11.327C4.85389 11.6741 3.46951 12.5411 2.47844 13.7846C1.48737 15.0282 0.948949 16.5739 0.952204 18.1661V31.2291C0.944317 31.2894 0.944317 31.3505 0.952204 31.4109V43.8305C0.95036 43.9969 0.98145 44.1621 1.04367 44.3164C1.1059 44.4708 1.19802 44.6112 1.3147 44.7296C1.43138 44.8479 1.57031 44.9419 1.72344 45.006C1.87657 45.0702 2.04086 45.1032 2.2068 45.1032H3.74019V47.7325C3.74019 48.0664 3.87237 48.3866 4.10765 48.6226C4.34293 48.8587 4.66204 48.9913 4.99478 48.9913C5.32752 48.9913 5.64663 48.8587 5.88191 48.6226C6.11719 48.3866 6.24937 48.0664 6.24937 47.7325V45.1032H124.251V47.7325C124.251 48.0664 124.383 48.3866 124.618 48.6226C124.854 48.8587 125.173 48.9913 125.505 48.9913C125.838 48.9913 126.157 48.8587 126.392 48.6226C126.628 48.3866 126.76 48.0664 126.76 47.7325V45.1032H128.698C129.032 45.0995 129.351 44.9638 129.586 44.7255C129.82 44.4872 129.952 44.1656 129.952 43.8305V31.4109C129.946 31.335 129.932 31.26 129.91 31.1871ZM84.5917 30.1381V26.6556H115.817V30.1381H84.5917ZM15.0315 26.6556H44.1659V30.1381H15.0315V26.6556ZM46.6194 26.6556H82.1383V30.1381H46.6194V26.6556ZM46.6194 24.1381V3.50877H82.1383V24.1381H46.6194ZM127.471 18.0263V29.8584H118.382V18.0263C118.382 16.8244 118.858 15.6718 119.705 14.822C120.552 13.9722 121.701 13.4948 122.899 13.4948C124.096 13.4948 125.245 13.9722 126.092 14.822C126.939 15.6718 127.415 16.8244 127.415 18.0263H127.471ZM122.229 11.0612C120.484 11.2088 118.858 12.0102 117.675 13.306C116.492 14.6018 115.839 16.297 115.845 18.0542V24.1661H84.5917V3.50877H112.053C114.333 3.50337 116.554 4.23506 118.387 5.5954C120.22 6.95575 121.567 8.87236 122.229 11.0612ZM19.2693 3.50877H44.1659V24.1381H15.0315V18.1661C15.0477 16.4671 14.4468 14.8204 13.3412 13.5335C12.2355 12.2465 10.7007 11.4075 9.02342 11.1731C9.68683 8.96247 11.0408 7.02424 12.8855 5.64428C14.7303 4.26432 16.9682 3.51568 19.2693 3.50877ZM3.50321 18.1661C3.56732 17.0096 4.07037 15.9217 4.90905 15.1258C5.74772 14.3298 6.85833 13.8863 8.01277 13.8863C9.16721 13.8863 10.2778 14.3298 11.1165 15.1258C11.9552 15.9217 12.4582 17.0096 12.5223 18.1661V29.9983H3.50321V18.1661ZM127.443 42.5717H3.46139V32.6696H127.443V42.5717Z" fill="#939598"/>
</g>
<defs>
<clipPath id="clip0_1_56925">
<rect width="129" height="48" fill="white" transform="translate(0.953125 0.991211)"/>
</clipPath>
</defs>
</svg>
