<svg width="97" height="46" viewBox="0 0 97 46" fill="none" xmlns="http://www.w3.org/2000/svg">
<g clip-path="url(#clip0_1_56952)">
<path d="M95.3543 45.6045H1.95628C1.61123 45.6045 1.28032 45.4669 1.03633 45.222C0.792344 44.977 0.655273 44.6448 0.655273 44.2985L0.655273 20.7609C0.662831 20.4196 0.803231 20.0948 1.0464 19.8561C1.28957 19.6174 1.61618 19.4838 1.95628 19.4839H95.3543C95.6993 19.4839 96.0302 19.6215 96.2742 19.8664C96.5182 20.1113 96.6553 20.4435 96.6553 20.7899V44.313C96.6515 44.6568 96.5127 44.9853 96.2691 45.2271C96.0256 45.4689 95.6968 45.6045 95.3543 45.6045ZM3.25729 43.0069H94.0533V22.0669H3.25729V43.0069Z" fill="#939598"/>
<path d="M89.0954 22.0671C88.7515 22.0633 88.4228 21.9245 88.1796 21.6804C87.9365 21.4362 87.7982 21.1062 87.7944 20.761V3.2312H9.51706V20.761C9.51706 21.1074 9.37999 21.4396 9.136 21.6845C8.89201 21.9295 8.5611 22.0671 8.21605 22.0671C7.871 22.0671 7.54008 21.9295 7.2961 21.6845C7.05211 21.4396 6.91504 21.1074 6.91504 20.761V1.92517C6.91504 1.57879 7.05211 1.2466 7.2961 1.00167C7.54008 0.75674 7.871 0.619141 8.21605 0.619141L89.1677 0.619141C89.5128 0.619141 89.8437 0.75674 90.0877 1.00167C90.3316 1.2466 90.4687 1.57879 90.4687 1.92517V20.7901C90.4651 20.9654 90.4264 21.1382 90.3548 21.2982C90.2832 21.4581 90.1803 21.602 90.0521 21.7212C89.9239 21.8404 89.7732 21.9324 89.6088 21.9918C89.4445 22.0513 89.2699 22.0768 89.0954 22.0671Z" fill="#939598"/>
<path d="M42.1579 21.5736H17.9158C16.7656 21.5736 15.6626 21.1149 14.8493 20.2985C14.036 19.4821 13.5791 18.3747 13.5791 17.2201C13.5791 16.0655 14.036 14.9582 14.8493 14.1418C15.6626 13.3254 16.7656 12.8667 17.9158 12.8667H42.1579C42.7274 12.8667 43.2914 12.9793 43.8175 13.1981C44.3437 13.4169 44.8217 13.7375 45.2244 14.1418C45.6271 14.546 45.9466 15.026 46.1645 15.5541C46.3825 16.0823 46.4946 16.6484 46.4946 17.2201C46.4946 17.7918 46.3825 18.3579 46.1645 18.8861C45.9466 19.4143 45.6271 19.8942 45.2244 20.2985C44.8217 20.7027 44.3437 21.0234 43.8175 21.2422C43.2914 21.461 42.7274 21.5736 42.1579 21.5736ZM17.9158 15.4933C17.4849 15.5329 17.0843 15.7327 16.7927 16.0535C16.501 16.3744 16.3393 16.793 16.3393 17.2274C16.3393 17.6617 16.501 18.0804 16.7927 18.4012C17.0843 18.7221 17.4849 18.9219 17.9158 18.9615H42.1579C42.3981 18.9836 42.6401 18.9552 42.8687 18.878C43.0973 18.8009 43.3073 18.6768 43.4855 18.5136C43.6636 18.3505 43.8058 18.1518 43.9032 17.9303C44.0005 17.7089 44.0508 17.4695 44.0508 17.2274C44.0508 16.9853 44.0005 16.7459 43.9032 16.5244C43.8058 16.303 43.6636 16.1043 43.4855 15.9411C43.3073 15.778 43.0973 15.6539 42.8687 15.5767C42.6401 15.4996 42.3981 15.4712 42.1579 15.4933H17.9158Z" fill="#939598"/>
<path d="M78.7154 21.5736H54.4588C53.3086 21.5736 52.2055 21.1149 51.3923 20.2985C50.579 19.4821 50.1221 18.3747 50.1221 17.2201C50.1221 16.0655 50.579 14.9582 51.3923 14.1418C52.2055 13.3254 53.3086 12.8667 54.4588 12.8667H78.7154C79.2849 12.8667 79.8488 12.9793 80.3749 13.1981C80.9011 13.4169 81.3792 13.7375 81.7819 14.1418C82.1846 14.546 82.504 15.026 82.7219 15.5541C82.9399 16.0823 83.052 16.6484 83.052 17.2201C83.052 17.7918 82.9399 18.3579 82.7219 18.8861C82.504 19.4143 82.1846 19.8942 81.7819 20.2985C81.3792 20.7027 80.9011 21.0234 80.3749 21.2422C79.8488 21.461 79.2849 21.5736 78.7154 21.5736ZM54.4588 15.4933C54.0279 15.5329 53.6273 15.7327 53.3356 16.0535C53.044 16.3744 52.8823 16.793 52.8823 17.2274C52.8823 17.6617 53.044 18.0804 53.3356 18.4012C53.6273 18.7221 54.0279 18.9219 54.4588 18.9615H78.7154C78.9555 18.9836 79.1976 18.9552 79.4261 18.878C79.6547 18.8009 79.8648 18.6768 80.0429 18.5136C80.221 18.3505 80.3633 18.1518 80.4606 17.9303C80.5579 17.7089 80.6082 17.4695 80.6082 17.2274C80.6082 16.9853 80.5579 16.7459 80.4606 16.5244C80.3633 16.303 80.221 16.1043 80.0429 15.9411C79.8648 15.778 79.6547 15.6539 79.4261 15.5767C79.1976 15.4996 78.9555 15.4712 78.7154 15.4933H54.4588Z" fill="#939598"/>
<path d="M12.9574 37.3332C12.736 37.3296 12.5184 37.275 12.3214 37.1735L2.20239 31.369C1.90144 31.19 1.68362 30.8983 1.59687 30.5582C1.51012 30.218 1.56154 29.8572 1.73981 29.555C1.91809 29.2529 2.20862 29.0343 2.54749 28.9472C2.88636 28.8601 3.24581 28.9117 3.54677 29.0907L13.261 34.6631L94.6174 21.1964C94.7863 21.1679 94.9592 21.173 95.1262 21.2114C95.2932 21.2499 95.451 21.3211 95.5906 21.4208C95.7302 21.5205 95.8489 21.6469 95.9399 21.7926C96.0308 21.9384 96.0923 22.1007 96.1208 22.2703C96.1492 22.4399 96.1442 22.6135 96.1058 22.7811C96.0675 22.9487 95.9966 23.1071 95.8973 23.2473C95.7979 23.3874 95.6721 23.5066 95.5269 23.5979C95.3817 23.6892 95.22 23.7509 95.0511 23.7795L13.1742 37.3187L12.9574 37.3332Z" fill="#939598"/>
</g>
<defs>
<clipPath id="clip0_1_56952">
<rect width="96" height="45" fill="white" transform="translate(0.655273 0.619141)"/>
</clipPath>
</defs>
</svg>
