<svg width="36" height="59" viewBox="0 0 36 59" fill="none" xmlns="http://www.w3.org/2000/svg">
<g clip-path="url(#clip0_1_56972)">
<path d="M34.2094 0.991211C25.6794 1.23646 17.4585 4.23318 10.7774 9.5327C7.63635 12.2142 5.11637 15.5448 3.39178 19.2941C1.6672 23.0435 0.779172 27.1221 0.789146 31.2478C0.805969 31.6299 0.968891 31.991 1.24438 32.2569C1.51987 32.5227 1.88696 32.673 2.2701 32.6769L16.1253 32.3812L7.20663 57.0201C7.07958 57.3905 7.1032 57.796 7.27244 58.1492C7.44168 58.5024 7.74302 58.7753 8.11166 58.9091C8.26933 58.9681 8.43699 58.996 8.60532 58.9912C8.91001 58.9929 9.20782 58.9008 9.45812 58.7273C9.70843 58.5539 9.89905 58.3076 10.004 58.0221L18.8898 33.8431L27.9236 58.0878C28.0283 58.369 28.217 58.6112 28.4643 58.7816C28.7116 58.952 29.0054 59.0424 29.3058 59.0405C29.4795 59.0454 29.6526 59.0175 29.8159 58.9584C29.9988 58.8907 30.1664 58.7877 30.3093 58.6553C30.4522 58.5228 30.5674 58.3635 30.6484 58.1865C30.7295 58.0094 30.7747 57.8182 30.7815 57.6237C30.7883 57.4291 30.7565 57.2352 30.6881 57.053L21.3909 32.2005H24.0567C30.5235 32.2005 35.7891 27.552 35.7891 21.8357V2.46955C35.7496 2.07405 35.5677 1.7063 35.2772 1.43446C34.9867 1.16262 34.6074 1.00514 34.2094 0.991211ZM32.8272 21.8522C32.8272 25.9258 28.8945 29.2603 24.0402 29.2603L3.80043 29.6873C4.00978 26.2685 4.90235 22.926 6.42557 19.8568C7.94878 16.7875 10.0718 14.0536 12.6697 11.8159C18.4407 7.23222 25.4699 4.50572 32.8272 3.99716V21.8522Z" fill="#939598"/>
</g>
<defs>
<clipPath id="clip0_1_56972">
<rect width="35" height="58" fill="white" transform="translate(0.789062 0.991211)"/>
</clipPath>
</defs>
</svg>
