<svg width="124" height="59" viewBox="0 0 124 59" fill="none" xmlns="http://www.w3.org/2000/svg">
<g clip-path="url(#clip0_1_56961)">
<path d="M97.6834 21.77H26.8556C26.435 21.77 26.0315 21.8892 25.7341 22.1014C25.4366 22.3135 25.2695 22.6013 25.2695 22.9014C25.2695 23.2014 25.4366 23.4892 25.7341 23.7013C26.0315 23.9135 26.435 24.0327 26.8556 24.0327H35.5439V57.8597C35.5439 58.1598 35.711 58.4476 36.0084 58.6597C36.3059 58.8719 36.7093 58.9911 37.13 58.9911C37.5506 58.9911 37.9541 58.8719 38.2515 58.6597C38.549 58.4476 38.7161 58.1598 38.7161 57.8597V27.5147H84.3779V57.8597C84.3779 58.1598 84.545 58.4476 84.8424 58.6597C85.1399 58.8719 85.5433 58.9911 85.964 58.9911C86.3846 58.9911 86.7881 58.8719 87.0855 58.6597C87.383 58.4476 87.5501 58.1598 87.5501 57.8597V24.0327H97.6834C98.1041 24.0327 98.5075 23.9135 98.805 23.7013C99.1024 23.4892 99.2695 23.2014 99.2695 22.9014C99.2695 22.6013 99.1024 22.3135 98.805 22.1014C98.5075 21.8892 98.1041 21.77 97.6834 21.77ZM84.3779 25.252H38.7161V23.995H84.3779V25.252Z" fill="#939598"/>
<path d="M85.2946 5.47886C83.4827 5.52009 81.7411 5.9887 80.3425 6.81132L80.0957 5.55428C80.0485 5.28094 79.8632 5.02927 79.5744 4.84645C79.2857 4.66363 78.9134 4.56221 78.5273 4.56122H75.0026V2.12255C75.0026 1.8225 74.8355 1.53474 74.5381 1.32257C74.2406 1.11041 73.8372 0.991211 73.4165 0.991211C72.9959 0.991211 72.5924 1.11041 72.295 1.32257C71.9975 1.53474 71.8304 1.8225 71.8304 2.12255V4.49836H68.3058C67.9197 4.49936 67.5474 4.60078 67.2586 4.7836C66.9698 4.96642 66.7845 5.21809 66.7373 5.49143L66.2791 8.00552L62.7545 5.49143C62.6086 5.38759 62.4354 5.30528 62.2449 5.2492C62.0544 5.19312 61.8503 5.16437 61.6442 5.1646H57.5204C57.0997 5.1646 56.6963 5.28379 56.3988 5.49596C56.1014 5.70813 55.9343 5.99589 55.9343 6.29594C55.9244 6.33754 55.9244 6.38003 55.9343 6.42164C55.8518 6.66737 55.8955 6.92605 56.0576 7.15073C57.2208 8.74717 58.331 10.2682 59.3884 11.6887C61.327 14.2656 62.9131 16.5031 64.2348 18.4515L63.4946 22.5998C63.4605 22.7588 63.476 22.9213 63.5399 23.0755C63.6039 23.2298 63.7148 23.3721 63.8647 23.4923C64.0129 23.6153 64.1969 23.7139 64.4038 23.7812C64.6107 23.8485 64.8357 23.8829 65.0631 23.882H81.6642C82.0834 23.8787 82.4842 23.7585 82.7807 23.547C83.0771 23.3355 83.2457 23.0497 83.2503 22.7506C83.2528 22.621 83.2167 22.4925 83.1446 22.3735L82.4749 18.5898C82.6441 18.5527 82.8045 18.4976 82.9507 18.4264C84.6366 17.4925 86.121 16.3871 87.3565 15.1455C89.5065 12.996 90.8812 11.4498 90.8812 9.55168C90.8905 9.02237 90.7532 8.49696 90.4773 8.00557C90.2013 7.51417 89.7921 7.06646 89.2732 6.68809C88.7542 6.30972 88.1356 6.00814 87.4528 5.80063C86.7701 5.59313 86.0367 5.48378 85.2946 5.47886ZM65.0455 14.4542L62.2786 10.6453C61.5208 9.6271 60.7102 8.54604 59.8995 7.43985H60.9216L65.7328 10.859L65.0455 14.4542ZM66.9312 21.6696L69.6275 6.76104H77.135L79.9019 21.6696H66.9312ZM84.7659 13.7879C83.9589 14.5948 83.0312 15.3367 81.999 16.0003L80.8183 9.43855H80.9416C82.0553 8.52286 83.6071 7.9358 85.2946 7.79182C85.9459 7.79514 86.5689 7.98201 87.0278 8.31169C87.4867 8.64137 87.7442 9.0871 87.7442 9.55168C87.7442 10.7207 86.634 11.9275 84.7659 13.7879Z" fill="#939598"/>
<path d="M46.5234 23.618C40.8487 23.618 36.249 19.8469 36.249 15.1958C36.249 14.8957 36.4161 14.608 36.7136 14.3958C37.011 14.1836 37.4145 14.0645 37.8351 14.0645H55.2293C55.6499 14.0645 56.0533 14.1836 56.3508 14.3958C56.6482 14.608 56.8153 14.8957 56.8153 15.1958C56.7977 19.8469 52.1981 23.618 46.5234 23.618ZM39.4741 16.3397C40.0909 19.1806 42.9987 21.3679 46.5234 21.3679C50.048 21.3679 52.8854 19.2058 53.5727 16.3397H39.4741Z" fill="#939598"/>
</g>
<path d="M120.27 42.476C119.197 37.8142 119.545 32.9379 121.27 28.476C123.27 23.476 123.96 16.266 123.99 15.966C124 15.8478 123.987 15.7287 123.952 15.6155C123.916 15.5023 123.859 15.3971 123.782 15.3061C123.629 15.1224 123.408 15.0072 123.17 14.986C123.051 14.9755 122.932 14.9883 122.819 15.0239C122.706 15.0594 122.601 15.1169 122.51 15.193C122.326 15.3468 122.211 15.5673 122.19 15.806C122.19 15.876 121.52 23.016 119.6 27.806C118.588 30.3748 118.02 33.0969 117.92 35.856H100.17C99.9308 35.856 99.7019 35.9508 99.5331 36.1196C99.3644 36.2884 99.2695 36.5173 99.2695 36.756V55.946C99.2695 56.1847 99.3644 56.4136 99.5331 56.5824C99.7019 56.7511 99.9308 56.846 100.17 56.846C100.408 56.846 100.637 56.7511 100.806 56.5824C100.975 56.4136 101.07 56.1847 101.07 55.946V40.696H118.07C118.19 41.536 118.34 42.276 118.48 42.886C119.48 47.166 122.11 56.096 122.14 56.186C122.194 56.3726 122.306 56.5368 122.461 56.654C122.616 56.7711 122.805 56.835 123 56.836C123.086 56.8498 123.173 56.8498 123.26 56.836C123.487 56.7667 123.678 56.6099 123.791 56.3999C123.903 56.19 123.928 55.9441 123.86 55.716C123.87 55.586 121.27 46.706 120.27 42.476ZM101.07 38.946V37.616H117.84C117.84 38.056 117.84 38.486 117.91 38.896L101.07 38.946Z" fill="#939598"/>
<path d="M4.03472 44.5741C5.11959 39.8972 4.76739 35.0051 3.02353 30.5286C1.00117 25.5124 0.303455 18.2789 0.273121 17.978C0.262497 17.8594 0.275517 17.7399 0.311438 17.6263C0.347357 17.5127 0.405474 17.4073 0.48247 17.316C0.63797 17.1316 0.860926 17.0161 1.10229 16.9948C1.2218 16.9842 1.34223 16.9971 1.45671 17.0328C1.57119 17.0684 1.67747 17.1261 1.76949 17.2025C1.95533 17.3568 2.07179 17.578 2.09325 17.8174C2.09325 17.8877 2.77074 25.0509 4.71221 29.8564C5.73529 32.4336 6.30972 35.1645 6.41099 37.9326H24.3595C24.6008 37.9326 24.8323 38.0277 25.003 38.1971C25.1736 38.3664 25.2695 38.5961 25.2695 38.8355L25.2695 58.0879C25.2695 58.3274 25.1736 58.557 25.003 58.7264C24.8323 58.8957 24.6008 58.9908 24.3595 58.9908C24.1181 58.9908 23.8866 58.8957 23.716 58.7264C23.5453 58.557 23.4494 58.3274 23.4494 58.0879L23.4494 42.7883H6.25932C6.13797 43.6311 5.9863 44.3735 5.84473 44.9855C4.83355 49.2794 2.17414 58.2384 2.1438 58.3287C2.08923 58.516 1.97504 58.6807 1.81829 58.7982C1.66154 58.9158 1.47067 58.9798 1.27419 58.9808C1.18711 58.9947 1.09836 58.9947 1.01128 58.9808C0.780888 58.9113 0.587667 58.754 0.473948 58.5434C0.360228 58.3327 0.335281 58.086 0.404573 57.8572C0.394461 57.7267 3.02353 48.8179 4.03472 44.5741ZM23.4494 41.0327V39.6983H6.49189C6.49189 40.1398 6.49189 40.5712 6.4211 40.9825L23.4494 41.0327Z" fill="#939598"/>
<defs>
<clipPath id="clip0_1_56961">
<rect width="74" height="58" fill="white" transform="translate(25.2695 0.991211)"/>
</clipPath>
</defs>
</svg>
