<svg width="24" height="28" viewBox="0 0 24 28" fill="none" xmlns="http://www.w3.org/2000/svg">
<path d="M17.155 14.3444L4.36715 6.76181V21.927L17.155 14.3444ZM23.119 15.0844L1.92117 27.6527C1.77059 27.7418 1.59564 27.7929 1.41496 27.8006C1.23429 27.8083 1.05465 27.7723 0.895181 27.6963C0.735715 27.6204 0.602393 27.5074 0.509413 27.3694C0.416434 27.2315 0.367281 27.0736 0.367188 26.9127V1.7761C0.367281 1.61523 0.416434 1.4574 0.509413 1.31941C0.602393 1.18142 0.735715 1.06844 0.895181 0.992508C1.05465 0.916578 1.23429 0.880536 1.41496 0.888223C1.59564 0.89591 1.77059 0.947038 1.92117 1.03616L23.119 13.6045C23.2559 13.6857 23.3682 13.7957 23.4459 13.9248C23.5236 14.0539 23.5642 14.198 23.5642 14.3444C23.5642 14.4908 23.5236 14.635 23.4459 14.764C23.3682 14.8931 23.2559 15.0031 23.119 15.0844Z" fill="#3B3B3B"/>
</svg>
