<svg width="45" height="46" viewBox="0 0 45 46" fill="none" xmlns="http://www.w3.org/2000/svg">
<path d="M44.4771 23C44.4771 35.2937 34.734 45.25 22.7271 45.25C10.7201 45.25 0.977051 35.2937 0.977051 23C0.977051 10.7063 10.7201 0.75 22.7271 0.75C34.734 0.75 44.4771 10.7063 44.4771 23Z" stroke="white" stroke-width="0.5"/>
<path d="M28.5602 29.3332H25.3936V26.1665H28.5602V29.3332ZM23.8102 29.3332H20.6436V26.1665H23.8102V29.3332ZM19.0602 29.3332H15.8936V26.1665H19.0602V29.3332ZM28.5602 24.5832H25.3936V21.4165H28.5602V24.5832ZM23.8102 24.5832H20.6436V21.4165H23.8102V24.5832ZM19.0602 24.5832H15.8936V21.4165H19.0602V24.5832ZM28.5602 19.8332H25.3936V16.6665H28.5602V19.8332ZM23.8102 19.8332H20.6436V16.6665H23.8102V19.8332ZM19.0602 19.8332H15.8936V16.6665H19.0602V19.8332Z" fill="white"/>
</svg>
